<?xml version="1.0" encoding="utf-8"?>

<!DOCTYPE svg PUBLIC "-//W3C//DTD SVG 1.1//EN" "http://www.w3.org/Graphics/SVG/1.1/DTD/svg11.dtd">
<svg version="1.1" id="Layer_1" xmlns="http://www.w3.org/2000/svg" xmlns:xlink="http://www.w3.org/1999/xlink" x="0px" y="0px"
	 viewBox="0 0 1920 1619" enable-background="new 0 0 1920 1619" xml:space="preserve">
<g>
	<rect fill="#B0E0D4" stroke="#B0E0D4" stroke-width="0.5" width="1920" height="1619"/>
	<path fill="#88BFA8" stroke="#88BFA8" stroke-width="0.5" d="M1068.25,112.3c19.39-19.83,50.86-25.66,76.61-16.11
		c9.33,3.87,18.4,9.19,24.96,17.01c5.69,6.4,10.11,13.9,13.09,21.92c1.04,2.51,1.65,5.24,3.11,7.57
		c13.72-3.82,28.04-6.98,42.35-5.12c8.92,1.02,17.71,4.57,24.35,10.71c8.19,7.95,11.58,19.56,11.95,30.72
		c0.03,11.16-2.37,22.65-8.63,32.04c-5.75,7.88-14.35,13.31-23.48,16.48c-7.96,2.68-16.2,4.54-24.54,5.53
		c-29.9,3.94-60.04,0.68-90.02-0.19c-18.75-0.77-37.31,2.51-55.98,3.48c-13.21,1.21-26.55,0.84-39.69-0.81
		c-12.24-2.5-25.07-6.64-33.66-16.2c-4.81-4.65-8.82-10.55-9.5-17.35c-1.39-8.76,2.76-17.78,9.52-23.29
		c6.59-5.68,14.98-8.82,23.38-10.64c5.55-1.25,11.29-0.93,16.86-2.08c-1.91-3-4.97-5.06-6.78-8.14c-5.79-8.64-6.61-19.64-4.89-29.65
		c1.73-9.11,6.74-18.25,15.19-22.66c6.7-3.6,14.87-2.58,21.55,0.51c4.17,1.9,7.37,5.34,11.39,7.49
		C1066.49,114.34,1067.44,112.88,1068.25,112.3z"/>
	<path fill="#88BFA8" stroke="#88BFA8" stroke-width="0.5" d="M1608.96,261.93c14.58-8.18,31.37-11.98,48.04-11.9
		c19.99-0.04,40.03,6.85,55.56,19.49c12.13,10.08,21.1,23.67,26.43,38.47c1.05,2.7,1.74,5.56,3.15,8.13
		c5.16-0.59,9.98-2.76,15.06-3.78c13.99-3.05,28.56-4.67,42.8-2.47c14.54,2.02,28.78,9.93,36.36,22.79
		c6.68,10.53,8.39,23.39,8.11,35.64c-0.59,10.81-2.98,21.64-7.87,31.35c-2.61,4.79-5.65,9.54-10.02,12.9
		c-7.1,5.66-14.94,10.5-23.59,13.39c-20.53,7.08-42.39,9.34-64.01,9.46c-10.65,1.1-21.31-0.2-31.97-0.21
		c-26.97-0.56-53.96-3.83-80.93-1.45c-27.65,2.13-55.33,5.96-83.11,4.13c-15.18-1.18-30.69-4.09-43.94-11.95
		c-9.42-5.16-17.39-13.04-22.41-22.55c-3.43-6.84-4.74-14.92-2.69-22.37c2.48-10.6,11.01-18.59,20.12-23.89
		c13.81-8.02,30.08-10.07,45.79-10.12c-4.71-4.26-9.54-8.6-12.51-14.32c-6.44-12.09-7.01-26.75-3.43-39.8
		c2.51-7.4,5.91-14.83,11.83-20.13c6.67-6.62,16.81-9.03,25.89-7.22c9.28,2.18,17.43,7.66,24.23,14.17
		C1592.85,272.95,1600.2,266.33,1608.96,261.93z"/>
	<path fill="#88BFA8" stroke="#88BFA8" stroke-width="0.5" d="M275.02,297.02c31.07-5.24,65.06-1.63,91.68,16.27
		c14.81,9.92,26.29,24.65,32.41,41.37c10.93-1.9,21.73-4.86,32.85-5.54c10.74-1.36,21.63-1.46,32.41-0.55
		c10.52,1.58,21.37,3.62,30.37,9.64c9.91,5.77,17.78,15.34,20.56,26.56c2.14,7.18,2.15,14.79,1.42,22.2
		c-0.54,6.36-3.27,12.22-5.74,18.02c-5.95,13.48-19.69,21.44-33.09,26.01c-12.08,4.94-25.09,6.85-37.92,8.72
		c-45.67,5.91-91.75,1.8-137.58,0.79c-28.87-1.47-57.64,2.64-86.45,3.79c-16.16,0.86-32.37,1.29-48.54,0.23
		c-17.9-1.07-36.1-4.42-52.09-12.86c-9.81-5.71-19.79-13.05-23.94-24.04c-3.24-8.67-0.29-18.68,6.37-24.88
		c10.53-10.31,25.02-15.19,39.21-17.88c7.93-1.36,15.98-2.29,24.04-2.08c1.83-0.09,3.82,0.25,5.5-0.67
		c-6.67-4.36-12.96-9.83-16.53-17.1c-7.53-15.07-3.6-34.18,7.98-46.08c8.43-8.05,20.51-12.03,32.07-10.29
		c11.14,0.76,20.72,7.04,30.06,12.55c3.11-0.79,5.2-3.58,7.78-5.34C241.71,305.78,258.33,300.23,275.02,297.02z"/>
	<path fill="#4A2314" stroke="#4A2314" stroke-width="0.5" d="M682,483.41c23.19-0.21,46.4-0.15,69.59-0.03
		c-0.12,5.3,0.24,10.64-0.21,15.93c-1.72,0.31-3.48,0.23-5.17,0.61c-0.09,21.33-0.07,42.68,0,64.02
		c-0.23,10.47-0.01,20.95-0.18,31.43c-0.14,16.19,0.22,32.39-0.13,48.58c-1.95,0.39-3.94,0.42-5.91,0.45
		c-13.33-0.11-26.66-0.04-39.99-0.06c-4.3-0.03-8.62,0.3-12.88-0.32c-0.62-26.68,0.07-53.4-0.36-80.09
		c-0.01-21.3,0.08-42.6-0.03-63.89c-1.45-0.58-3.05-0.36-4.56-0.59C683.12,494.21,683.51,488.55,682,483.41z"/>
	<path fill="#1F0A02" stroke="#1F0A02" stroke-width="0.5" d="M682,483.41c1.51,5.14,1.12,10.8,0.17,16.04
		C681.31,494.16,681.57,488.72,682,483.41z"/>
	<path fill="#FEFEFE" stroke="#FEFEFE" stroke-width="0.5" d="M1027.77,514.77c7.05-8.8,22.76-7.83,28.56,1.89
		c2.67,3.86,2.98,8.7,2.77,13.25c-1.14,4.04-3.11,8.03-6.53,10.61c-5.91,4.7-14.82,5.2-21.12,1.01c-3.78-2.4-6.28-6.35-7.76-10.5
		C1022.84,525.41,1023.68,519.03,1027.77,514.77z"/>
	<path fill="#4A2314" stroke="#4A2314" stroke-width="0.5" d="M1059.1,529.91c14.03,10.7,27.64,21.96,41.83,32.43
		c20.95,16.62,41.81,33.47,63.27,49.45c19.54,16.02,39.88,31.03,59.55,46.9c5.19,3.96,10.35,7.96,15.46,12.03
		c1.58,1.41,3.72,1.64,5.77,1.65c31.67-0.08,63.34-0.03,95.02-0.04c3.02,0,6.1-0.41,9.1,0.29c-30.69,0.12-61.4,0.01-92.1,0.06
		c-5.09,0.12-10.35-0.74-15.25,1.04c-12.27,0.33-24.56,0.03-36.83,0.18c-3.58,0.59-5.85-2.59-8.39-4.48
		c-47.27-38.05-94.53-76.11-141.85-114.11c-4.61-3.33-8.5-7.7-13.56-10.36c-28.61,24.39-56.67,49.49-85.13,74.08
		c-20.03,17.64-40.22,35.08-60.23,52.72c-1.15,0.84-2.25,2.13-3.79,2.07c-135.76-0.17-271.52-0.07-407.28-0.07
		c6.4-0.93,12.88-0.43,19.32-0.61c118,0.03,236.01-0.04,354.01,0.04c2.19-0.07,4.54-0.37,6.28-1.87
		c34.76-30.56,69.52-61.15,104.41-91.57c5.64-5.42,12.1-10,17.32-15.83c-28.99-0.67-58.02,0.07-87.03-0.13
		c-19,0.19-38.02-0.47-57.01,0.53c-21.33,0.02-42.66,0.03-63.98,0.03c-4.7,0.01-9.43,0.22-14.09-0.43l0.48-0.61
		c28.55,0.16,57.09,0.09,85.64,0.04c32.32-0.15,64.64,0.15,96.96-0.2c13.56-0.01,27.15,0.25,40.7-0.44
		c5.32-3.93,9.97-8.72,15.08-12.92c6.95-6.28,14.3-12.12,20.91-18.75c1.48,4.15,3.98,8.1,7.76,10.5c6.3,4.19,15.21,3.69,21.12-1.01
		C1055.99,537.94,1057.96,533.95,1059.1,529.91z"/>
	<path fill="#FFFEFE" stroke="#FFFEFE" stroke-width="0.5" d="M955.99,619.03c28.46-24.59,56.52-49.69,85.13-74.08
		c5.06,2.66,8.95,7.03,13.56,10.36c47.32,38,94.58,76.06,141.85,114.11c2.54,1.89,4.81,5.07,8.39,4.48
		c12.27-0.15,24.56,0.15,36.83-0.18c37.46,0.3,74.92-0.04,112.38,0.18c3.62,0.17,7.74-0.28,10.74,2.22
		c5.95,4.03,5.45,14.38-0.9,17.78c-2.92,2.14-6.68,1.63-10.05,2.15c-0.79,9.62,0.7,19.47-0.64,29.01
		c0.12-9.67,0.05-19.33,0.06-28.99l-0.87-0.13c-8.13-0.65-16.32-0.11-24.47-0.28c-34,0-68,0-102,0c-6.6,0.27-13.32-0.59-19.82,0.44
		c-0.2,0.51-0.6,1.53-0.8,2.04c-2.78,8.43-6.33,16.61-8.68,25.18c-2.09-4.05-3.04-8.53-4.11-12.92c-1.99-7.67-3.85-15.38-5.84-23.05
		c-0.75-2.68-1.07-5.85-3.58-7.53c-41.03-32.52-81.93-65.2-122.93-97.76c-4.92-4.22-10.24-7.95-15.16-12.17
		c-1.62-1.31-3.17-2.77-5.09-3.59c-1.13,0.26-1.95,1.14-2.81,1.84c-42.12,38.57-84.44,76.93-126.65,115.38
		c-1.56,1.41-3.27,2.74-4.38,4.55c-5.35,11.26-8.69,23.45-14.58,34.45c-3.26-8.78-5.83-17.81-9.21-26.53
		c-11.41-0.79-22.91-0.11-34.36-0.33c-125.67,0-251.34,0-377.01,0c-4.03,0.05-8.07-0.22-12.08,0.19l-0.15,1.1
		c-0.32,9.39-0.09,18.8-0.1,28.19c-1-9.63,0.17-19.39-0.53-29.05c-2.37-2.05-5.94-2.75-7.36-5.86c-4-6.12,0.09-15.1,7.35-16.08
		c8.19-0.61,16.46,0.32,24.67-0.28c0.47-0.03,1.42-0.09,1.9-0.12c135.76,0,271.52-0.1,407.28,0.07c1.54,0.06,2.64-1.23,3.79-2.07
		C915.77,654.11,935.96,636.67,955.99,619.03z"/>
	<path fill="#D9F4E8" stroke="#D9F4E8" stroke-width="0.5" d="M1103.32,561.53c9.18-0.8,18.46-0.16,27.68-0.45
		c21.62,0.15,43.27-0.24,64.87,0.17l0.16,0.98c-31.08,0.17-62.16-0.05-93.23,0.15L1103.32,561.53z"/>
	<path fill="#DEEFE5" stroke="#DEEFE5" stroke-width="0.5" d="M762.92,562.35c19.35-0.61,38.72-0.21,58.08-0.3
		c9.67,0.18,19.35-0.3,29.01,0.25l0.03,1.04c-28.55,0.05-57.09,0.12-85.64-0.04C764.03,563.06,763.29,562.59,762.92,562.35z"/>
	<path fill="#6E3420" stroke="#6E3420" stroke-width="0.5" d="M1100.93,562.34c0.47,0.01,1.4,0.03,1.87,0.04
		c31.07-0.2,62.15,0.02,93.23-0.15c16.32,0.05,32.64,0.03,48.97,0.01c5.83,0.17,11.71-0.39,17.52,0.27c7.3,9,14.85,17.81,22.17,26.8
		c2.07,2.77,4.86,5.06,6.34,8.24c-7.88,4.75-13.54,12.14-20.72,17.76c-7.42,5.88-13.68,13.03-21,19.01
		c-6.39,6.31-13.63,11.67-20.1,17.89c-2.09,1.91-4.38,3.77-5.46,6.48c-19.67-15.87-40.01-30.88-59.55-46.9
		C1142.74,595.81,1121.88,578.96,1100.93,562.34z"/>
	<path fill="#944429" stroke="#944429" stroke-width="0.5" d="M619.24,568.26c2.67-1.87,5.11-4.91,8.72-4.54
		c18.35-0.03,36.7,0.19,55.05-0.15c1.25-0.01,2.5,0.11,3.75,0.36c0.43,26.69-0.26,53.41,0.36,80.09c4.26,0.62,8.58,0.29,12.88,0.32
		c13.33,0.02,26.66-0.05,39.99,0.06c1.97-0.03,3.96-0.06,5.91-0.45c13.79-10.45,26.89-21.79,40.36-32.66
		c8.68-7.33,17.62-14.35,26.1-21.92c1.6-1.4,3.18-2.9,5.09-3.88c3.97-1.38,9.01,0.54,12.25-2.79c5.53-5.01,11.49-9.63,16.22-15.46
		c-21.31-0.31-42.62,0.2-63.93-0.01c-4.17,0.04-8.87-0.38-12.31,2.46c-4.12,3.22-8.19,6.49-12.47,9.5c-1.9,1.57-4.37,2.86-5.16,5.36
		c2.3,0.25,4.63,0.31,6.95,0.55c-1.72,3.19-4.92,5.05-7.58,7.34c-1.62,1.26-3.12,3.13-5.39,2.93c0.17-10.48-0.05-20.96,0.18-31.43
		c5.86-0.68,11.83-0.47,17.71-0.03c4.66,0.65,9.39,0.44,14.09,0.43c21.32,0,42.65-0.01,63.98-0.03c18.99-1,38.01-0.34,57.01-0.53
		c29.01,0.2,58.04-0.54,87.03,0.13c-5.22,5.83-11.68,10.41-17.32,15.83c-34.89,30.42-69.65,61.01-104.41,91.57
		c-1.74,1.5-4.09,1.8-6.28,1.87c-118-0.08-236.01-0.01-354.01-0.04c-6.44,0.18-12.92-0.32-19.32,0.61c-0.48,0.03-1.43,0.09-1.9,0.12
		c0.98-1.38,2.25-2.52,3.58-3.55C530.66,636.3,574.94,602.26,619.24,568.26z"/>
	<path fill="#DE9C52" stroke="#DE9C52" stroke-width="0.5" d="M1037.18,568.14c0.86-0.7,1.68-1.58,2.81-1.84
		c1.92,0.82,3.47,2.28,5.09,3.59c4.92,4.22,10.24,7.95,15.16,12.17c-5.94,6.46-13.01,11.76-18.96,18.21
		c-14.19,13.15-27.79,26.92-42.05,39.98c-16.05,15.61-32.54,30.76-48.56,46.4c-5.85,5.77-13.41,10.5-16.36,18.55
		c-2.34,6.37-5.9,12.22-8.14,18.61c0.73,0.8,1.67,1.16,2.8,1.08c89.49,0.01,179-0.13,268.49,0.06c23.83-0.58,47.7-0.08,71.54-0.24
		c17.58,0.12,35.17-0.25,52.75,0.18c-2.21,7.08-0.82,14.73-0.84,22.05l-0.92-0.03c-49.99-0.32-100,0.11-150-0.23
		c-111-0.03-222-0.04-332.99,0.12c-77.01-0.11-154.02-0.18-231.02-0.1c-37.36,0.31-74.73-0.14-112.08,0.23
		c-0.45-7.31-0.49-14.69,0.02-21.98c17.01-0.57,34.06-0.08,51.08-0.24c92.67,0,185.33,0,278,0c22.5-0.14,45.03,0.26,67.51-0.19
		c0.26-0.5,0.8-1.5,1.06-2c5.89-11,9.23-23.19,14.58-34.45c1.11-1.81,2.82-3.14,4.38-4.55
		C952.74,645.07,995.06,606.71,1037.18,568.14z"/>
	<path fill="#6E3420" stroke="#6E3420" stroke-width="0.5" d="M769.68,569.69c3.44-2.84,8.14-2.42,12.31-2.46
		c21.31,0.21,42.62-0.3,63.93,0.01c-4.73,5.83-10.69,10.45-16.22,15.46c-3.24,3.33-8.28,1.41-12.25,2.79
		c-1.91,0.98-3.49,2.48-5.09,3.88c-8.48,7.57-17.42,14.59-26.1,21.92c-13.47,10.87-26.57,22.21-40.36,32.66
		c0.35-16.19-0.01-32.39,0.13-48.58c2.27,0.2,3.77-1.67,5.39-2.93c2.66-2.29,5.86-4.15,7.58-7.34c-2.32-0.24-4.65-0.3-6.95-0.55
		c0.79-2.5,3.26-3.79,5.16-5.36C761.49,576.18,765.56,572.91,769.68,569.69z"/>
	<path fill="#F6C46F" stroke="#F6C46F" stroke-width="0.5" d="M1060.24,582.06c41,32.56,81.9,65.24,122.93,97.76
		c2.51,1.68,2.83,4.85,3.58,7.53c1.99,7.67,3.85,15.38,5.84,23.05c1.07,4.39,2.02,8.87,4.11,12.92c0.19,0.41,0.57,1.23,0.76,1.63
		c-89.49-0.19-179-0.05-268.49-0.06c-1.13,0.08-2.07-0.28-2.8-1.08c2.24-6.39,5.8-12.24,8.14-18.61
		c2.95-8.05,10.51-12.78,16.36-18.55c16.02-15.64,32.51-30.79,48.56-46.4c14.26-13.06,27.86-26.83,42.05-39.98
		C1047.23,593.82,1054.3,588.52,1060.24,582.06 M1040.38,615.44c-14.32,2.08-27.17,10.86-34.93,22.97
		c-6.12,9.97-8.97,21.99-7.41,33.64c2.65,22.95,22.78,42.46,45.92,43.94c16.47,1.8,33.3-5.54,43.74-18.27
		c13.68-16.23,15.4-41.36,3.78-59.18C1081.15,621.5,1060,611.9,1040.38,615.44z"/>
	<path fill="#944429" stroke="#944429" stroke-width="0.5" d="M1270.31,615.31c7.18-5.62,12.84-13.01,20.72-17.76
		c1.64,1.13,2.9,2.73,4.16,4.29c18.95,23,38.09,45.85,57.12,68.8c0.64,1.02,1.91,1.9,1.82,3.26c-37.46-0.22-74.92,0.12-112.38-0.18
		c4.9-1.78,10.16-0.92,15.25-1.04c30.7-0.05,61.41,0.06,92.1-0.06c-3-0.7-6.08-0.29-9.1-0.29c-31.68,0.01-63.35-0.04-95.02,0.04
		c-2.05-0.01-4.19-0.24-5.77-1.65c-5.11-4.07-10.27-8.07-15.46-12.03c1.08-2.71,3.37-4.57,5.46-6.48
		c6.47-6.22,13.71-11.58,20.1-17.89C1256.63,628.34,1262.89,621.19,1270.31,615.31z"/>
	<path fill="#FDFDFD" stroke="#FDFDFD" stroke-width="0.5" d="M1040.38,615.44c19.62-3.54,40.77,6.06,51.1,23.1
		c11.62,17.82,9.9,42.95-3.78,59.18c-10.44,12.73-27.27,20.07-43.74,18.27c-23.14-1.48-43.27-20.99-45.92-43.94
		c-1.56-11.65,1.29-23.67,7.41-33.64C1013.21,626.3,1026.06,617.52,1040.38,615.44 M1013.24,660.63c-0.76,3.87-0.82,7.91,0.06,11.79
		c1.39,11.5,9.32,21.91,19.68,26.98c13.72,7.09,31.92,4.45,42.75-6.69c7.68-7.35,11.94-18.17,11.06-28.79
		c-0.62-14.61-11.15-28.84-25.33-32.66c-4.46-2.29-9.66-2.12-14.53-2C1030.18,629.91,1014.95,643.95,1013.24,660.63z"/>
	<path fill="#2B3836" stroke="#2B3836" stroke-width="0.5" d="M1013.24,660.63c1.71-16.68,16.94-30.72,33.69-31.37
		c4.87-0.12,10.07-0.29,14.53,2c-3.09,0.76-6.25,1.15-9.35,1.84c-9.67,2.67-17.62,9.79-22.63,18.32
		c-6.75,11.88-7.12,26.99-1.13,39.25c1.32,3.36,3.81,5.98,6.33,8.47c-0.42,0.07-1.28,0.19-1.7,0.26
		c-10.36-5.07-18.29-15.48-19.68-26.98C1014.22,668.53,1014.19,664.5,1013.24,660.63z"/>
	<path fill="#57706A" stroke="#57706A" stroke-width="0.5" d="M1061.46,631.26c14.18,3.82,24.71,18.05,25.33,32.66
		c0.88,10.62-3.38,21.44-11.06,28.79c-10.83,11.14-29.03,13.78-42.75,6.69c0.42-0.07,1.28-0.19,1.7-0.26
		c-2.52-2.49-5.01-5.11-6.33-8.47c-5.99-12.26-5.62-27.37,1.13-39.25c5.01-8.53,12.96-15.65,22.63-18.32
		C1055.21,632.41,1058.37,632.02,1061.46,631.26z"/>
	<path fill="#0F1815" stroke="#0F1815" stroke-width="0.5" d="M1013.24,660.63c0.95,3.87,0.98,7.9,0.06,11.79
		C1012.42,668.54,1012.48,664.5,1013.24,660.63z"/>
	<path fill="#240700" stroke="#240700" stroke-width="0.5" d="M458.91,695.85c4.01-0.41,8.05-0.14,12.08-0.19
		c125.67,0,251.34,0,377.01,0c11.45,0.22,22.95-0.46,34.36,0.33c-3.55,1.72-7.58,0.65-11.36,0.84
		c-137.41,0.1-274.83-0.13-412.24,0.12L458.91,695.85z"/>
	<path fill="#4A2314" stroke="#4A2314" stroke-width="0.5" d="M882.36,695.99c3.38,8.72,5.95,17.75,9.21,26.53
		c-0.26,0.5-0.8,1.5-1.06,2c-22.48,0.45-45.01,0.05-67.51,0.19c-92.67,0-185.33,0-278,0c-17.02,0.16-34.07-0.33-51.08,0.24
		c-11.74,0.44-23.51,0.05-35.26,0.19c0.01-9.39-0.22-18.8,0.1-28.19c137.41-0.25,274.83-0.02,412.24-0.12
		C874.78,696.64,878.81,697.71,882.36,695.99z"/>
	<path fill="#240800" stroke="#240800" stroke-width="0.5" d="M1206.18,696.1c6.5-1.03,13.22-0.17,19.82-0.44c34,0,68,0,102,0
		c8.15,0.17,16.34-0.37,24.47,0.28c-1.12,0.47-2.27,0.79-3.44,0.94c-46.03-0.06-92.07,0.01-138.1-0.04c-1.95,0.11-3.7,0.96-5.55,1.3
		C1205.58,697.63,1205.98,696.61,1206.18,696.1z"/>
	<path fill="#4A2314" stroke="#4A2314" stroke-width="0.5" d="M1352.47,695.94l0.87,0.13c-0.01,9.66,0.06,19.32-0.06,28.99
		c-10.51,0.06-21.04,0.3-31.53-0.17c-17.58-0.43-35.17-0.06-52.75-0.18c-23.84,0.16-47.71-0.34-71.54,0.24
		c-0.19-0.4-0.57-1.22-0.76-1.63c2.35-8.57,5.9-16.75,8.68-25.18c1.85-0.34,3.6-1.19,5.55-1.3c46.03,0.05,92.07-0.02,138.1,0.04
		C1350.2,696.73,1351.35,696.41,1352.47,695.94z"/>
	<path fill="#F6C46F" stroke="#F6C46F" stroke-width="0.5" d="M493.9,746.93c37.35-0.37,74.72,0.08,112.08-0.23
		c77-0.08,154.01-0.01,231.02,0.1c110.99-0.16,221.99-0.15,332.99-0.12c50,0.34,100.01-0.09,150,0.23
		c0.78,11.01,0.11,22.06,0.33,33.09c-0.01,55,0,110,0,165c0.04,5.34,0.08,10.69-0.31,16.03c-1.25,1.6-2.72,3.26-4.97,2.89
		c-272.35-0.07-544.71,0.03-817.06-0.05c-1.56,0.11-2.83-0.79-4.03-1.64c-0.71-11.37-0.09-22.83-0.3-34.23c0-50.67,0-101.33,0-152
		C493.82,766.31,493.3,756.6,493.9,746.93 M605.47,750.42c-0.3-0.01-0.9-0.03-1.2-0.04c-0.79,0.67-1.1,1.54-0.94,2.61
		c0.05,54.67,0.01,109.34,0.02,164.01c0.14,3-0.55,6.2,0.67,9.06c-5.34,0.09-10.69-0.34-16.02,0.06
		c-0.54,6.19-0.65,12.54,0.02,18.73c7.97,0.59,15.99,0.1,23.98,0.26c58.69,0,117.37,0,176.06,0c1.54,0.08,3.91-0.06,3.77-2.19
		c0.09-5.55,0.21-11.12-0.09-16.66c-3.58-0.42-7.2-0.34-10.8-0.34c0.04-0.48,0.11-1.45,0.14-1.93
		c-0.54-58.21,0.09-116.45-0.36-174.66c-17.55-0.59-35.15-0.07-52.72-0.24c-39-0.01-78.01,0.01-117.02-0.02
		C609.12,749.23,606.81,748.77,605.47,750.42 M910.25,749.31c-0.05,0.62-0.14,1.87-0.18,2.49c-0.51,13.39-0.08,26.8-0.22,40.2
		c0,35,0,70,0,105c0.22,9.52-0.44,19.08,0.29,28.58c-4.29,0.92-8.66,0.08-12.98,0.59c-0.84,0.91-0.66,2.29-0.76,3.45
		c0.05,4.93-0.41,9.9,0.14,14.83c3.35,1.14,6.98,0.54,10.46,0.68c85.67-0.04,171.33-0.01,257-0.02c9.96-0.19,19.96,0.38,29.91-0.3
		c0.71-5.98,1.21-12.18,0.42-18.13c-4.03-1.54-8.92-0.28-13.26-0.7c0.18-1.33,0.28-2.65,0.31-3.97c-0.04-54-0.01-108.01-0.02-162.01
		c-0.09-3.56,0.39-7.2-0.55-10.66c-80.6-0.3-161.21-0.05-241.81-0.13C929.42,749.46,919.81,748.57,910.25,749.31z"/>
	<path fill="#C2DCBE" stroke="#C2DCBE" stroke-width="0.5" d="M1319.99,746.91l0.92,0.03c0.78,3.28,0.21,6.67,0.49,10
		c0.34,2.03,1.27,3.94,1.39,6.02c-0.02,58.01-0.01,116.03-0.01,174.04c0.16,7.63-0.33,15.29,0.22,22.9c1.26,5.07,8.6-0.21,9.79,5.03
		l-0.88-0.09c-3.83-0.68-7.73-0.57-11.55-1.2c-0.09-0.65-0.26-1.96-0.35-2.61c0.39-5.34,0.35-10.69,0.31-16.03c0-55-0.01-110,0-165
		C1320.1,768.97,1320.77,757.92,1319.99,746.91z"/>
	<path fill="#FDFEFE" stroke="#FDFEFE" stroke-width="0.5" d="M605.47,750.42c1.34-1.65,3.65-1.19,5.51-1.35
		c39.01,0.03,78.02,0.01,117.02,0.02c17.57,0.17,35.17-0.35,52.72,0.24c0.45,58.21-0.18,116.45,0.36,174.66
		c-0.03,0.48-0.1,1.45-0.14,1.93c-24.31,0.24-48.63,0.08-72.94,0.13c-32.42-0.25-64.85,0.27-97.27-0.15c3.13-3.27,5.84-7,9.45-9.75
		c2.97-0.63,6.04-0.55,9.06-0.66c14.93-0.1,29.86-0.07,44.79,0c1.53-0.1,3.18,0.12,4.61-0.57c0.21-49.94-0.18-99.89,0.21-149.83
		c6.38,0.01,12.76-0.07,19.14-0.05c0.07,50.06-0.11,100.13,0.09,150.18c15.28,0.54,30.62,0.06,45.92,0.22
		c6.73-0.29,13.56,0.63,20.22-0.48l0.71-0.17c-0.08-46.53,0-93.06-0.04-139.59c0.01-3.12,0.01-6.24,0.33-9.34
		c4.49-4.95,9.53-9.39,13.7-14.61c-17.64-0.02-35.28,0-52.92,0.03c-32.65-0.82-65.33-0.26-98-0.42
		C620.49,750.66,612.94,751.35,605.47,750.42z"/>
	<path fill="#FDFEFE" stroke="#FDFEFE" stroke-width="0.5" d="M910.25,749.31c9.56-0.74,19.17,0.15,28.75-0.1
		c80.6,0.08,161.21-0.17,241.81,0.13c0.94,3.46,0.46,7.1,0.55,10.66c0.01,54-0.02,108.01,0.02,162.01
		c-0.03,1.32-0.13,2.64-0.31,3.97c-88.43-0.05-176.87,0.03-265.29-0.03c4.18-2.54,8.08-5.54,12.41-7.86
		c11.92,0.61,23.87,0.06,35.81,0.24c7.78-0.18,15.6,0.39,23.36-0.3c0.86-6.61,0.01-13.37,0.31-20.03
		c0.09-45.09-0.2-90.18,0.15-135.26c4.42-0.55,8.88-0.5,13.32-0.4c0.41,51.77,0.02,103.56,0.21,155.33l0.73,0.45
		c23.29,0.49,46.62,0.06,69.92,0.21c4.02-0.05,8.06,0.21,12.07-0.25l0.13-1.08c0.32-47.97,0.12-95.97,0.1-143.95
		c0.05-3.47,0.04-6.94,0.07-10.39c4.49-0.02,8.98-0.01,13.48-0.04c0.15,3.18,0.18,6.37,0.18,9.57c0.04,48.52,0.11,97.04-0.04,145.56
		l0.76,0.16c8.37,0.95,16.83,0.16,25.25,0.42c12.69-0.15,25.41,0.27,38.1-0.2l0.13-1.06c0.27-47.74,0.05-95.49,0.12-143.24
		c0.01-3.34-0.04-6.67,0.08-10c5.25-4.49,11.88-7.09,16.87-11.9c-10.75-0.64-21.54-0.09-32.3-0.27c-59,0-118,0-177,0
		c-19.98,0.1-39.96-0.2-59.93,0.14C910.11,751.18,910.2,749.93,910.25,749.31z"/>
	<path fill="#ADADAD" stroke="#ADADAD" stroke-width="0.5" d="M604.27,750.38c0.3,0.01,0.9,0.03,1.2,0.04
		c7.47,0.93,15.02,0.24,22.53,0.44c32.67,0.16,65.35-0.4,98,0.42c17.64-0.03,35.28-0.05,52.92-0.03c-4.17,5.22-9.21,9.66-13.7,14.61
		c-3.94-1.37-8.15-0.66-12.22-0.76c-18.34-0.03-36.68,0.07-55.01-0.06c-6.38-0.02-12.76,0.06-19.14,0.05
		c-19.6,0.16-39.22-0.25-58.82,0.2c-0.9,8.19-0.09,16.48-0.36,24.71c0.01,37.67,0,75.33,0,113c0.02,4.02-0.22,8.07,0.25,12.08
		c3.08,0.4,6.21,0.42,9.32,0.41c-3.02,0.11-6.09,0.03-9.06,0.66c-3.61,2.75-6.32,6.48-9.45,9.75c-2.24,0.08-4.48,0.17-6.71,0.16
		c-1.22-2.86-0.53-6.06-0.67-9.06c-0.01-54.67,0.03-109.34-0.02-164.01C603.17,751.92,603.48,751.05,604.27,750.38z"/>
	<path fill="#ADADAD" stroke="#ADADAD" stroke-width="0.5" d="M910.07,751.8c19.97-0.34,39.95-0.04,59.93-0.14c59,0,118,0,177,0
		c10.76,0.18,21.55-0.37,32.3,0.27c-4.99,4.81-11.62,7.41-16.87,11.9c-1.04-2.03-3.57-1.35-5.4-1.51c-19.72,0.3-39.47-0.3-59.18,0.3
		c-4.5,0.03-8.99,0.02-13.48,0.04c-27.72-0.67-55.49-0.05-83.23-0.32c-4.44-0.1-8.9-0.15-13.32,0.4l-0.71,0.01
		c-9.68-0.84-19.41-0.15-29.11-0.37c-9.86,0.08-19.73-0.15-29.57,0.05c-0.24,51.88,0.24,103.78-0.24,155.66
		c-4.33,2.32-8.23,5.32-12.41,7.86c-1.9,0.02-3.77-0.22-5.64-0.37c-0.73-9.5-0.07-19.06-0.29-28.58c0-35,0-70,0-105
		C909.99,778.6,909.56,765.19,910.07,751.8z"/>
	<path fill="#415350" stroke="#415350" stroke-width="0.5" d="M928.43,762.43c9.84-0.2,19.71,0.03,29.57-0.05
		c9.7,0.22,19.43-0.47,29.11,0.37c0.22,3.36,0.52,6.78-0.15,10.12c-13.34,0.23-26.69,0.03-40.04,0.06
		c-1.51,0.04-3.01,0.17-4.45,0.55c-0.78,3.11-0.56,6.34-0.53,9.53c0.16,44.58-0.17,89.18,0.15,133.76
		c13.95,0.59,27.95,0.06,41.92,0.2c1.14,0.22,2.26,0.57,3.35,1.06c-7.76,0.69-15.58,0.12-23.36,0.3
		c-11.94-0.18-23.89,0.37-35.81-0.24C928.67,866.21,928.19,814.31,928.43,762.43z"/>
	<path fill="#40534F" stroke="#40534F" stroke-width="0.5" d="M1001.14,762.34c27.74,0.27,55.51-0.35,83.23,0.32
		c-0.03,3.45-0.02,6.92-0.07,10.39c-25.46-0.29-50.92,0.04-76.37-0.18c-1.81-0.01-3.62,0.14-5.35,0.67
		c0.17,39.8,0.05,79.64,0.09,119.46c-0.13,8.05,0.35,16.12-0.45,24.15l-0.14,0.97l-0.73-0.45
		C1001.16,865.9,1001.55,814.11,1001.14,762.34z"/>
	<path fill="#40534F" stroke="#40534F" stroke-width="0.5" d="M1097.85,762.62c19.71-0.6,39.46,0,59.18-0.3
		c1.83,0.16,4.36-0.52,5.4,1.51c-0.12,3.33-0.07,6.66-0.08,10c-3.06-0.77-6.22-1.07-9.35-0.96c-16.69,0.2-33.38-0.07-50.07,0.15
		c-1.69,0.02-3.31-0.4-4.9-0.83C1098.03,768.99,1098,765.8,1097.85,762.62z"/>
	<path fill="#57706A" stroke="#57706A" stroke-width="0.5" d="M987.11,762.75l0.71-0.01c-0.35,45.08-0.06,90.17-0.15,135.26
		c-0.3,6.66,0.55,13.42-0.31,20.03c-1.09-0.49-2.21-0.84-3.35-1.06c-13.97-0.14-27.97,0.39-41.92-0.2
		c-0.32-44.58,0.01-89.18-0.15-133.76c-0.03-3.19-0.25-6.42,0.53-9.53c1.44-0.38,2.94-0.51,4.45-0.55
		c13.35-0.03,26.7,0.17,40.04-0.06C987.63,769.53,987.33,766.11,987.11,762.75z"/>
	<path fill="#415450" stroke="#415450" stroke-width="0.5" d="M620.03,765.29c19.6-0.45,39.22-0.04,58.82-0.2
		c-0.39,49.94,0,99.89-0.21,149.83c-1.43,0.69-3.08,0.47-4.61,0.57c-14.93-0.07-29.86-0.1-44.79,0c-3.11,0.01-6.24-0.01-9.32-0.41
		c-0.47-4.01-0.23-8.06-0.25-12.08c0-37.67,0.01-75.33,0-113C619.94,781.77,619.13,773.48,620.03,765.29 M630.33,776.27
		c-0.03,45.81,0.04,91.64-0.03,137.46c3.52,0.62,7.12,0.39,10.69,0.36c12.02-0.21,24.05,0.22,36.06-0.16
		c0.69-8.62,0.07-17.29,0.29-25.93c0.02-36.01-0.05-72.02,0.03-108.02c0.06-1.31-0.12-2.56-0.53-3.76
		c-5.55-0.85-11.24-0.02-16.84-0.3C650.11,776.17,640.18,775.41,630.33,776.27z"/>
	<path fill="#415450" stroke="#415450" stroke-width="0.5" d="M697.99,765.04c18.33,0.13,36.67,0.03,55.01,0.06
		c4.07,0.1,8.28-0.61,12.22,0.76c-0.32,3.1-0.32,6.22-0.33,9.34c-5.54,1.37-11.27,0.47-16.9,0.71c-16.29,0.2-32.62-0.31-48.89,0.21
		c-0.69,8.26,0.17,16.58-0.14,24.88c0.11,37.63-0.19,75.29,0.15,112.92c17.61,0.37,35.26,0,52.89,0.13
		c4.06,0.17,8.37-0.73,12.22,0.91c-6.66,1.11-13.49,0.19-20.22,0.48c-15.3-0.16-30.64,0.32-45.92-0.22
		C697.88,865.17,698.06,815.1,697.99,765.04z"/>
	<path fill="#57706A" stroke="#57706A" stroke-width="0.5" d="M1098.03,772.19c1.59,0.43,3.21,0.85,4.9,0.83
		c16.69-0.22,33.38,0.05,50.07-0.15c3.13-0.11,6.29,0.19,9.35,0.96c-0.07,47.75,0.15,95.5-0.12,143.24
		c-20.09,0.22-40.19,0.09-60.28,0.04c-1.1,0.16-2.16,0.42-3.2,0.8l-0.76-0.16C1098.14,869.23,1098.07,820.71,1098.03,772.19z"/>
	<path fill="#57706A" stroke="#57706A" stroke-width="0.5" d="M1002.58,773.54c1.73-0.53,3.54-0.68,5.35-0.67
		c25.45,0.22,50.91-0.11,76.37,0.18c0.02,47.98,0.22,95.98-0.1,143.95c-27.32,0.4-54.66,0.09-81.98,0.15
		c0.8-8.03,0.32-16.1,0.45-24.15C1002.63,853.18,1002.75,813.34,1002.58,773.54z"/>
	<path fill="#57706A" stroke="#57706A" stroke-width="0.5" d="M747.99,775.91c5.63-0.24,11.36,0.66,16.9-0.71
		c0.04,46.53-0.04,93.06,0.04,139.59l-0.71,0.17c-3.85-1.64-8.16-0.74-12.22-0.91c-17.63-0.13-35.28,0.24-52.89-0.13
		c-0.34-37.63-0.04-75.29-0.15-112.92c0.31-8.3-0.55-16.62,0.14-24.88C715.37,775.6,731.7,776.11,747.99,775.91z"/>
	<path fill="#57706A" stroke="#57706A" stroke-width="0.5" d="M630.33,776.27c9.85-0.86,19.78-0.1,29.67-0.35
		c5.6,0.28,11.29-0.55,16.84,0.3c0.41,1.2,0.59,2.45,0.53,3.76c-0.08,36-0.01,72.01-0.03,108.02c-0.22,8.64,0.4,17.31-0.29,25.93
		c-12.01,0.38-24.04-0.05-36.06,0.16c-3.57,0.03-7.17,0.26-10.69-0.36C630.37,867.91,630.3,822.08,630.33,776.27z"/>
	<path fill="#3B4F49" stroke="#3B4F49" stroke-width="0.5" d="M1002.22,917.15c27.32-0.06,54.66,0.25,81.98-0.15l-0.13,1.08
		c-4.01,0.46-8.05,0.2-12.07,0.25c-23.3-0.15-46.63,0.28-69.92-0.21L1002.22,917.15z"/>
	<path fill="#3B5049" stroke="#3B5049" stroke-width="0.5" d="M1098.75,917.91c1.04-0.38,2.1-0.64,3.2-0.8
		c20.09,0.05,40.19,0.18,60.28-0.04l-0.13,1.06c-12.69,0.47-25.41,0.05-38.1,0.2C1115.58,918.07,1107.12,918.86,1098.75,917.91z"/>
	<path fill="#DE9C52" stroke="#DE9C52" stroke-width="0.5" d="M910.14,925.58c1.87,0.15,3.74,0.39,5.64,0.37
		c88.42,0.06,176.86-0.02,265.29,0.03c4.34,0.42,9.23-0.84,13.26,0.7c0.79,5.95,0.29,12.15-0.42,18.13
		c-9.95,0.68-19.95,0.11-29.91,0.3c-85.67,0.01-171.33-0.02-257,0.02c-3.48-0.14-7.11,0.46-10.46-0.68
		c-0.55-4.93-0.09-9.9-0.14-14.83c0.1-1.16-0.08-2.54,0.76-3.45C901.48,925.66,905.85,926.5,910.14,925.58z"/>
	<path fill="#DE9C52" stroke="#DE9C52" stroke-width="0.5" d="M588,926.12c5.33-0.4,10.68,0.03,16.02-0.06
		c2.23,0.01,4.47-0.08,6.71-0.16c32.42,0.42,64.85-0.1,97.27,0.15c24.31-0.05,48.63,0.11,72.94-0.13c3.6,0,7.22-0.08,10.8,0.34
		c0.3,5.54,0.18,11.11,0.09,16.66c0.14,2.13-2.23,2.27-3.77,2.19c-58.69,0-117.37,0-176.06,0c-7.99-0.16-16.01,0.33-23.98-0.26
		C587.35,938.66,587.46,932.31,588,926.12z"/>
	<path fill="#F8D08A" stroke="#F8D08A" stroke-width="0.5" d="M1315.04,963.92c2.25,0.37,3.72-1.29,4.97-2.89
		c0.09,0.65,0.26,1.96,0.35,2.61c3.82,0.63,7.72,0.52,11.55,1.2c-0.34,4.34-0.05,8.7-0.25,13.06c0.02,1.16-1.05,2.01-1.95,2.55
		c-2.65-0.04-5.28-0.5-7.92-0.4c-0.41,0-1.23,0-1.65,0c-220.71,0.06-441.42,0.01-662.13,0.03c-54.71,0.06-109.41-0.13-164.11,0.1
		c-4.45-0.07-8.96,0.13-13.34-0.71c-1.1-4.99-0.62-10.18-0.25-15.22c4.3-0.88,8.75,0.1,13.04-0.74c0.15-0.32,0.45-0.96,0.6-1.28
		c1.2,0.85,2.47,1.75,4.03,1.64C770.33,963.95,1042.69,963.85,1315.04,963.92z"/>
	<path fill="#DF9C52" stroke="#DF9C52" stroke-width="0.5" d="M493.9,980.18c54.7-0.23,109.4-0.04,164.11-0.1
		c220.71-0.02,441.42,0.03,662.13-0.03c0.27,3.64,0.21,7.29-0.11,10.93c-217.01-0.18-434.02-0.03-651.03-0.08
		c-58.36,0.07-116.73-0.14-175.1,0.11C493.45,987.42,493.38,983.76,493.9,980.18z"/>
	<path fill="#F1BA67" stroke="#F1BA67" stroke-width="0.5" d="M1320.14,980.05c0.42,0,1.24,0,1.65,0c-1.37,3.14-1.23,6.59-1.14,9.95
		c0,69.67-0.02,139.33,0.01,209c0.22,5.82-0.24,11.68,0.68,17.46c0.63,6.49,0.32,13.04-0.45,19.5c-0.48,24.34-0.15,48.69-0.25,73.04
		c0,56.66,0.01,113.33-0.01,169.99c-0.1,3.53,0.03,7.07,0.33,10.61l-0.73-0.04c-4.64-1.38-9.49-0.46-14.23-0.63
		c-34.36-0.13-68.75,0.27-103.1-0.26c0.9-0.77,1.81-1.63,3.11-1.42c3.93-0.21,7.91,0.32,11.81-0.42c0.91-8.9,0.09-17.9,0.35-26.83
		c0.01-32.33,0.01-64.67,0.01-97c0.32-7.69-0.73-15.48,0.67-23.1c1.64-0.06,3.3-0.08,4.95-0.24c0.59-5.13,0.6-10.34,0.17-15.48
		c-5.04-1.92-10.74-0.48-16.03-0.94c-0.39-51.75-0.07-103.5-0.17-155.24c0.07-16.07-0.19-32.14,0.19-48.2
		c9.98,0.05,19.99-0.48,29.96,0.28c4.72,3.56,8.63,8.04,12.75,12.25c6.88,6.47,12.63,14.01,19.58,20.42
		c6.94,6.41,12.59,14.06,19.72,20.28c7.48,7.52,14.97,15.06,21.87,23.12c2.32,2.47,4.6,5.42,8.01,6.39
		c0.07-57.51,0-115.03,0.03-172.54c0.11-13.01-0.22-26.02,0.15-39.02C1320.35,987.34,1320.41,983.69,1320.14,980.05z"/>
	<path fill="#F6C46F" stroke="#F6C46F" stroke-width="0.5" d="M493.9,991.01c58.37-0.25,116.74-0.04,175.1-0.11
		c217.01,0.05,434.02-0.1,651.03,0.08c-0.37,13-0.04,26.01-0.15,39.02c-0.03,57.51,0.04,115.03-0.03,172.54
		c-3.41-0.97-5.69-3.92-8.01-6.39c-6.9-8.06-14.39-15.6-21.87-23.12c-7.13-6.22-12.78-13.87-19.72-20.28
		c-6.95-6.41-12.7-13.95-19.58-20.42c-4.12-4.21-8.03-8.69-12.75-12.25c0.49-0.19,1.48-0.56,1.97-0.75
		c0.27-5.54,1.18-11.38-0.58-16.73c7.08-2.9,8.4-13.71,2.32-18.27c-2.77-2.61-6.78-2.52-10.31-2.8c-1.36-0.83-2.65-1.75-3.97-2.59
		c-18.34-13.17-37.09-25.76-55.53-38.8c-2.4-1.59-4.7-3.96-7.79-3.83c-73.71-0.01-147.41,0.04-221.12-0.02
		c-3.95-0.31-6.77,2.87-9.91,4.72c-20.05,12.92-40.22,25.67-60.21,38.7c-1.04,0.6-2.07,1.23-3.1,1.85
		c-4.36,0.49-9.63-0.35-12.95,3.15c-3.52,3.21-3.95,8.63-2.34,12.89c1.35,2.8,4.15,4.47,6.62,6.21c0.59,5.25,0.03,10.54,0.37,15.8
		c10.58,0.35,21.18-0.03,31.77,0.19c0.42,10.73,0.1,21.46,0.2,32.2c-0.1,14.44,0.22,28.88-0.18,43.32
		c-6.95-3.08-12.54-8.43-18.65-12.83c-8.04-6.02-16.68-11.2-24.45-17.58c-4.87-4.26-10.82-7.04-15.61-11.38
		c-5.11-4.74-11.49-7.74-16.8-12.2c-2.24-1.66-4.4-4.19-7.48-3.55c-6.65-3.36-12.18-8.49-18.19-12.8
		c-33.49-24.82-66.85-49.79-100.29-74.67c-3.28-2.36-6.28-5.14-9.82-7.09c-3.81,1.28-6.64,4.51-10.01,6.64
		c-33.92,24.74-67.78,49.55-101.71,74.27c-6.59,5.16-13.84,9.52-20.1,15.05c-0.4,8.92-0.3,17.91-0.04,26.85
		c5.18,0.52,10.42,0.3,15.59-0.23c0.31,29.39,0.04,58.8,0.13,88.2c0.3,11.54-0.61,23.15,0.45,34.66c4.46,0.22,8.94,0.19,13.4-0.06
		c0.24-40.93-0.2-81.88,0.22-122.8c4.05,0.54,8.14,0.43,12.22,0.3c0.92,1.08,1.61,2.33,2.05,3.7c-1.17,1.47-1.57,3.28-1.42,5.16
		c0.18,96.03-0.15,192.07,0.16,288.1c-13.95,0.11-27.91,0.09-41.86,0c-1.36,0.21-3.14-0.41-4.16,0.75
		c-1.33,4.26-0.56,8.79-0.74,13.19c0.12,4.05-0.72,8.26,0.67,12.19l0.22,0.78c-17.66-0.35-35.32,0.05-52.98-0.18
		c-0.77-10.24-0.11-20.54-0.33-30.8c0-141.33,0-282.66,0-423.99C493.83,1020.34,493.3,1005.65,493.9,991.01z"/>
	<path fill="#944429" stroke="#944429" stroke-width="0.5" d="M933,1041.01c3.14-1.85,5.96-5.03,9.91-4.72
		c73.71,0.06,147.41,0.01,221.12,0.02c3.09-0.13,5.39,2.24,7.79,3.83c18.44,13.04,37.19,25.63,55.53,38.8
		c-1.44,0.46-2.85,1.05-4.32,1.28c-111,0.03-222.02,0-333.03,0.02c-5.75,0.14-11.5,0.1-17.21-0.53
		C892.78,1066.68,912.95,1053.93,933,1041.01z"/>
	<path fill="#944429" stroke="#944429" stroke-width="0.5" d="M671.88,1049.86c3.37-2.13,6.2-5.36,10.01-6.64
		c3.54,1.95,6.54,4.73,9.82,7.09c33.44,24.88,66.8,49.85,100.29,74.67c6.01,4.31,11.54,9.44,18.19,12.8
		c0.99,9.31,0.33,18.72,0.45,28.07c-6.1,0.94-12.32,0.4-18.45,0.15c-3.52-3.32-7.43-6.17-11.23-9.14c-3.48-2.81-6.99-5.56-10.6-8.19
		c-5.34-4.43-10.83-8.68-16.31-12.93c-3.59-2.77-7.03-5.74-10.77-8.31l-0.76-0.58c-4.11-3.43-8.24-6.82-12.53-10.01
		c-3.73-3.03-7.45-6.07-11.36-8.87c-5.45-4.42-10.93-8.83-16.58-12.99c-0.37-0.26-1.1-0.8-1.46-1.07c-1.9-1.73-3.84-3.4-5.93-4.88
		c-4.34-3.18-8.21-6.99-12.78-9.84c-5.05,2.33-8.95,6.66-13.49,9.86c-2.27,1.58-4.45,3.29-6.57,5.07
		c-6.21,4.5-12.26,9.23-18.25,14.02c-3.94,2.78-7.76,5.73-11.54,8.72c-4.5,3.39-8.97,6.83-13.37,10.34
		c-3.38,2.43-6.7,4.96-9.86,7.68c-5.97,4.15-11.62,8.74-17.31,13.26c-3.91,2.77-7.64,5.79-11.46,8.69
		c-3.53,2.47-6.84,5.24-10.21,7.92c-1.43,0.26-2.82,0.62-4.2,1.05c-5.17,0.53-10.41,0.75-15.59,0.23
		c-0.26-8.94-0.36-17.93,0.04-26.85c6.26-5.53,13.51-9.89,20.1-15.05C604.1,1099.41,637.96,1074.6,671.88,1049.86z"/>
	<path fill="#EAE3E1" stroke="#EAE3E1" stroke-width="0.5" d="M668.39,1089.05c4.54-3.2,8.44-7.53,13.49-9.86
		c4.57,2.85,8.44,6.66,12.78,9.84c-4.07,1.51-8.43,0.98-12.67,0.96C677.45,1089.86,672.78,1090.57,668.39,1089.05z"/>
	<path fill="#6E3420" stroke="#6E3420" stroke-width="0.5" d="M1223.03,1080.22c1.47-0.23,2.88-0.82,4.32-1.28
		c1.32,0.84,2.61,1.76,3.97,2.59c-50.11,0.33-100.22,0.05-150.32,0.14c-70.44-0.08-140.88,0.15-211.31-0.11
		c1.03-0.62,2.06-1.25,3.1-1.85c5.71,0.63,11.46,0.67,17.21,0.53C1001.01,1080.22,1112.03,1080.25,1223.03,1080.22z"/>
	<path fill="#FFFFFE" stroke="#FFFFFE" stroke-width="0.5" d="M856.74,1084.71c3.32-3.5,8.59-2.66,12.95-3.15
		c70.43,0.26,140.87,0.03,211.31,0.11c50.1-0.09,100.21,0.19,150.32-0.14c3.53,0.28,7.54,0.19,10.31,2.8
		c6.08,4.56,4.76,15.37-2.32,18.27c-0.64,0.25-1.92,0.74-2.56,0.99c-47.58,0.37-95.17,0.05-142.75,0.16c-64,0-128,0-192,0
		c-13.42,0.1-26.84-0.23-40.25,0.17l-0.73-0.11c-2.47-1.74-5.27-3.41-6.62-6.21C852.79,1093.34,853.22,1087.92,856.74,1084.71z"/>
	<path fill="#D9D2CE" stroke="#D9D2CE" stroke-width="0.5" d="M661.82,1094.12c2.12-1.78,4.3-3.49,6.57-5.07
		c4.39,1.52,9.06,0.81,13.6,0.94c4.24,0.02,8.6,0.55,12.67-0.96c2.09,1.48,4.03,3.15,5.93,4.88c-5.61,2.25-11.73,1-17.58,1.26
		C675.94,1094.91,668.72,1096.04,661.82,1094.12z"/>
	<path fill="#E9E3E1" stroke="#E9E3E1" stroke-width="0.5" d="M643.57,1108.14c5.99-4.79,12.04-9.52,18.25-14.02
		c6.9,1.92,14.12,0.79,21.19,1.05c5.85-0.26,11.97,0.99,17.58-1.26c0.36,0.27,1.09,0.81,1.46,1.07
		c-8.01,2.29-14.07,8.35-21.12,12.44c-0.08,0.37-0.23,1.11-0.31,1.48C668.28,1108.49,655.85,1109.69,643.57,1108.14z"/>
	<path fill="#FDFDFC" stroke="#FDFDFC" stroke-width="0.5" d="M680.93,1107.42c7.05-4.09,13.11-10.15,21.12-12.44
		c5.65,4.16,11.13,8.57,16.58,12.99c-4.79,1.22-9.75,0.73-14.63,0.8c-7.8-0.03-15.59-0.03-23.38,0.13
		C680.7,1108.53,680.85,1107.79,680.93,1107.42z"/>
	<path fill="#4A2315" stroke="#4A2315" stroke-width="0.5" d="M1236.75,1103.59c0.64-0.25,1.92-0.74,2.56-0.99
		c0.05,5.56-0.82,11.26,0.58,16.73c-0.49,0.19-1.48,0.56-1.97,0.75c-9.97-0.76-19.98-0.23-29.96-0.28
		c-1.58-0.01-3.13,0.05-4.68,0.13c-25.09-0.49-50.19-0.09-75.29-0.22c-78.27,0.06-156.55-0.12-234.83,0.09
		c-10.59-0.22-21.19,0.16-31.77-0.19c-0.34-5.26,0.22-10.55-0.37-15.8l0.73,0.11c1.27,0.69,2.73,0.93,4.18,1.04
		c123.97-0.27,247.94,0.08,371.91-0.18C1237.57,1104.48,1237.02,1103.88,1236.75,1103.59z"/>
	<path fill="#2C0300" stroke="#2C0300" stroke-width="0.5" d="M1239.31,1102.6c1.76,5.35,0.85,11.19,0.58,16.73
		C1238.49,1113.86,1239.36,1108.16,1239.31,1102.6z"/>
	<path fill="#220100" stroke="#220100" stroke-width="0.5" d="M861.75,1103.92c13.41-0.4,26.83-0.07,40.25-0.17c64,0,128,0,192,0
		c47.58-0.11,95.17,0.21,142.75-0.16c0.27,0.29,0.82,0.89,1.09,1.19c-123.97,0.26-247.94-0.09-371.91,0.18
		C864.48,1104.85,863.02,1104.61,861.75,1103.92z"/>
	<path fill="#DAD1CF" stroke="#DAD1CF" stroke-width="0.5" d="M632.03,1116.86c3.78-2.99,7.6-5.94,11.54-8.72
		c12.28,1.55,24.71,0.35,37.05,0.76c7.79-0.16,15.58-0.16,23.38-0.13c4.88-0.07,9.84,0.42,14.63-0.8c3.91,2.8,7.63,5.84,11.36,8.87
		c-21.26,0.61-42.53-0.02-63.79,0.32C654.81,1116.92,643.42,1117.21,632.03,1116.86z"/>
	<path fill="#EBE3E1" stroke="#EBE3E1" stroke-width="0.5" d="M618.66,1127.2c4.4-3.51,8.87-6.95,13.37-10.34
		c11.39,0.35,22.78,0.06,34.17,0.3c-4.14,3.56-9.08,6.03-13.1,9.74c24.63,0.37,49.27-0.14,73.9,0.21
		c5.17,0.06,10.34-0.12,15.52-0.26l0.76,0.58c-5.38,0.96-10.85,0.21-16.27,0.4c-24.85-0.24-49.7,0.08-74.55-0.12
		C641.2,1126.86,629.91,1127.82,618.66,1127.2z"/>
	<path fill="#FEFEFD" stroke="#FEFEFD" stroke-width="0.5" d="M666.2,1117.16c21.26-0.34,42.53,0.29,63.79-0.32
		c4.29,3.19,8.42,6.58,12.53,10.01c-5.18,0.14-10.35,0.32-15.52,0.26c-24.63-0.35-49.27,0.16-73.9-0.21
		C657.12,1123.19,662.06,1120.72,666.2,1117.16z"/>
	<path fill="#ADADAD" stroke="#ADADAD" stroke-width="0.5" d="M893.16,1119.8c78.28-0.21,156.56-0.03,234.83-0.09
		c25.1,0.13,50.2-0.27,75.29,0.22c-4.67,5.47-12.07,7.51-16.8,12.92c-19.5,0.04-39.01-0.35-58.48,0.18
		c-0.5,3.69-0.44,7.43-0.4,11.16c-0.18-3.71-0.15-7.44-0.57-11.12c-5.28-0.51-10.59-0.12-15.87-0.2
		c-28.72-0.2-57.44-0.02-86.16-0.08c-11.33,0.14-22.69-0.28-34,0.21c-0.45,3.38-0.43,6.8-0.43,10.22c-0.11-3.4-0.09-6.8-0.54-10.16
		c-5.28-0.49-10.59-0.14-15.87-0.2c-15.39-0.15-30.78-0.06-46.16-0.05c-4.24,0.07-8.5-0.23-12.7,0.32
		c-0.33,54.28,0.01,108.58-0.16,162.87c-0.03,2.91-0.18,5.84,0.09,8.77c3.61,0.4,7.24,0.29,10.87,0.33
		c-6.87,4.88-13.88,9.54-20.97,14.07c-1.9,1.14-3.48,2.7-5.09,4.19c-2.34,0.28-4.69,0.16-7.01-0.09
		c0.72-11.41,0.16-22.85,0.34-34.27c-0.13-31.22,0.26-62.46-0.19-93.68c0.4-14.44,0.08-28.88,0.18-43.32
		C893.26,1141.26,893.58,1130.53,893.16,1119.8z"/>
	<path fill="#FEFEFF" stroke="#FEFEFF" stroke-width="0.5" d="M1203.28,1119.93c1.55-0.08,3.1-0.14,4.68-0.13
		c-0.38,16.06-0.12,32.13-0.19,48.2c0.1,51.74-0.22,103.49,0.17,155.24c-51.64,0.32-103.29,0.04-154.94,0.14
		c-50.99-0.01-101.98,0.01-152.96-0.02c1.61-1.49,3.19-3.05,5.09-4.19c7.09-4.53,14.1-9.19,20.97-14.07
		c2.36-0.08,4.72-0.09,7.09-0.12c13.61-0.21,27.23,0.11,40.83-0.13c0.52-24.27,0.07-48.57,0.22-72.85
		c-0.02-29.37,0.05-58.73-0.03-88.1c0.03-3.68,0.04-7.36-0.05-11.04c5.28,0.06,10.59-0.29,15.87,0.2c0.45,3.36,0.43,6.76,0.54,10.16
		c0.15,45.59,0.02,91.19,0.06,136.78c0.24,8.08-0.52,16.21,0.41,24.26l0.16,0.7c39.95-0.16,79.91,0.11,119.86-0.13
		c0.6-21.59,0.08-43.22,0.25-64.83c0.01-32.61-0.02-65.22,0.01-97.83c0.02-3.11-0.06-6.21-0.16-9.3c5.28,0.08,10.59-0.31,15.87,0.2
		c0.42,3.68,0.39,7.41,0.57,11.12c-0.07,52.27,0.01,104.54-0.05,156.81c0.01,1.28,0.11,2.57,0.3,3.87
		c19.26,0.09,38.53,0.09,57.8,0.01l0.8-0.1c0.16-57.3,0.12-114.62,0.03-171.93C1191.21,1127.44,1198.61,1125.4,1203.28,1119.93z"/>
	<path fill="#DAD2CF" stroke="#DAD2CF" stroke-width="0.5" d="M608.8,1134.88c3.16-2.72,6.48-5.25,9.86-7.68
		c11.25,0.62,22.54-0.34,33.8,0.51c24.85,0.2,49.7-0.12,74.55,0.12c5.42-0.19,10.89,0.56,16.27-0.4c3.74,2.57,7.18,5.54,10.77,8.31
		c-27.02-0.02-54.03-0.04-81.05-0.02c-11.6,0.01-23.19-0.18-34.78,0.34C628.43,1135.36,618.46,1136.96,608.8,1134.88z"/>
	<path fill="#415450" stroke="#415450" stroke-width="0.5" d="M915.3,1133.13c4.2-0.55,8.46-0.25,12.7-0.32
		c15.38-0.01,30.77-0.1,46.16,0.05c0.09,3.68,0.08,7.36,0.05,11.04c-8.7-1.12-17.5-0.27-26.24-0.56c-4.56,0.4-9.36-0.66-13.76,0.87
		c-0.84,9.56-0.08,19.19-0.33,28.79c0.01,42.02-0.04,84.04,0.02,126.06c-0.06,1.97-0.33,3.96-0.71,5.92
		c-2.37,0.03-4.73,0.04-7.09,0.12c-3.63-0.04-7.26,0.07-10.87-0.33c-0.27-2.93-0.12-5.86-0.09-8.77
		C915.31,1241.71,914.97,1187.41,915.3,1133.13z"/>
	<path fill="#425350" stroke="#425350" stroke-width="0.5" d="M991,1133c11.31-0.49,22.67-0.07,34-0.21
		c28.72,0.06,57.44-0.12,86.16,0.08c0.1,3.09,0.18,6.19,0.16,9.3c-4.56,1.89-9.55,1.03-14.32,1.15
		c-34.93,0.06-69.87-0.09-104.79,0.07c-0.87,4.48-0.38,9.07-0.42,13.61c0,45,0.01,90,0,135c-0.04,4.09,0.48,8.27-0.75,12.26
		c-0.93-8.05-0.17-16.18-0.41-24.26c-0.04-45.59,0.09-91.19-0.06-136.78C990.57,1139.8,990.55,1136.38,991,1133z"/>
	<path fill="#425350" stroke="#425350" stroke-width="0.5" d="M1128,1133.03c19.47-0.53,38.98-0.14,58.48-0.18
		c0.09,57.31,0.13,114.63-0.03,171.93l-0.8,0.1c-0.93-5.93-0.38-11.93-0.46-17.88c-0.02-43.33,0-86.67-0.01-130
		c-0.05-4.34,0.28-8.7-0.26-13.01c-10.61-0.8-21.29-0.09-31.92-0.33c-8.47,0.29-16.99-0.68-25.4,0.53
		C1127.56,1140.46,1127.5,1136.72,1128,1133.03z"/>
	<path fill="#E9E4E1" stroke="#E9E4E1" stroke-width="0.5" d="M591.49,1148.14c5.69-4.52,11.34-9.11,17.31-13.26
		c9.66,2.08,19.63,0.48,29.42,1.18c-5.44,4.82-12.38,7.59-17.49,12.82c-5.25,0.23-10.5,0.1-15.74,0.12
		C600.48,1148.96,595.85,1149.64,591.49,1148.14z"/>
	<path fill="#A04D09" stroke="#A04D09" stroke-width="0.5" d="M251.06,1136.98c6.62-0.58,13.24-2.21,19.89-1.13
		c1.15,0.36,3.24,0.47,3.34,2.04c-2.13,2.45-5.06,4.64-5.47,8.11c0.76,5.57,6.47,8.16,11.02,10.23c10.84,4.32,22.46,6.53,34.06,7.49
		c7.96,0.47,15.98,3.06,22.12,8.27c3.61,3.26,6.32,8.03,5.79,13.04c-0.3,6.76-5.95,11.38-8.55,17.24
		c-3.2,6.77-2.49,14.92,0.97,21.46c3.84,8.72,11.24,15.22,15.17,23.88c2.99,6.05,4.13,13.3,1.96,19.8
		c-1.29,3.69-4.39,6.21-6.95,9.02c-3.3,3.61-3.14,8.94-2.23,13.44c2.21,9.94,6.87,19.13,12.29,27.69c2.41,3.5,1.28,8.1-0.22,11.75
		c-3.47,7.88-9.39,14.68-16.59,19.38c-6.11,3.98-14.57,2.58-19.85,8.11c-8.41,8.52-14.98,19.69-26.46,24.54
		c-12.35,5.56-26.11,4.57-39.29,4.46c-0.15-12.95,0.06-25.91-0.09-38.86c0-1.24,0.11-2.44,0.33-3.62
		c4.87-4.07,10.91-6.42,16.27-9.77c13.21-8.22,26.97-15.53,40.08-23.89c-0.4-2.21-2.28-5.82-4.92-3.85
		c-17.15,10-34.18,20.24-51.43,30.05c-0.8-10.26,0.23-20.57-0.5-30.83c-2.58-0.5-5.21-0.22-7.8-0.04c1.17-0.64,2.43-1.05,3.67-1.5
		c1.84-11.04,0.91-22.34,1.33-33.49c-0.12-11.69,0.92-23.34,0.77-35.02c0.43-11.61,0.31-23.23,0.69-34.83
		c0.82-14.37,0.34-28.77,1.07-43.14C251.18,1150.34,252.27,1143.6,251.06,1136.98z"/>
	<path fill="#FFFFFF" stroke="#FFFFFF" stroke-width="0.5" d="M638.22,1136.06c11.59-0.52,23.18-0.33,34.78-0.34
		c27.02-0.02,54.03,0,81.05,0.02c5.48,4.25,10.97,8.5,16.31,12.93c-25.11,0.58-50.24,0.11-75.36,0.27
		c-24.76-0.03-49.51,0.05-74.27-0.06C625.84,1143.65,632.78,1140.88,638.22,1136.06z"/>
	<path fill="#BE630A" stroke="#BE630A" stroke-width="0.5" d="M213.1,1152.03c10.21-9.43,24.02-15.17,37.96-15.05
		c1.21,6.62,0.12,13.36,0.47,20.03c-0.73,14.37-0.25,28.77-1.07,43.14c-0.38,11.6-0.26,23.22-0.69,34.83
		c0.15,11.68-0.89,23.33-0.77,35.02c-0.42,11.15,0.51,22.45-1.33,33.49c-1.24,0.45-2.5,0.86-3.67,1.5
		c-0.31,17.02,0.18,34.07-0.28,51.1c-11.69-13.98-22.2-28.94-33.69-43.09c-1.76-1.8-3.73,0.97-4.86,2.22
		c0.07,1.17,0.88,2.13,1.51,3.1c11.76,14.93,23.14,30.15,34.9,45.09c0.99,1.37,2.17,2.8,2.23,4.6c0.44,5.93-0.2,11.89,0.17,17.84
		c-8.28,1.15-16.74,0.25-25.06-0.22c-10.02-1.14-20.27-3.22-28.97-8.57c-6.94-4.18-11.75-11.27-14.19-18.9
		c-3.09-9.09-4.26-18.79-8.37-27.53c-2.93-6.29-7.4-11.93-13.24-15.74c-5.02-3.45-10.86-6.65-13.35-12.55
		c-1.96-4.4-0.39-9.48,2.49-13.07c6.43-8.76,16.9-14.3,21.11-24.68c0.54-2.96,0.51-6.2-1.12-8.83c-1.93-4.53-6.85-6.8-8.59-11.44
		c-2.92-4.75-2.74-10.55-1.99-15.86c2.53-9.17,8.35-17.12,15.15-23.62c12.2-10.56,26.85-19.19,43.04-21.44
		c-2.3-2.48-5.6-4.21-6.51-7.75C201.51,1166.8,207.32,1158.23,213.1,1152.03z"/>
	<path fill="#F1BA67" stroke="#F1BA67" stroke-width="0.5" d="M810.19,1137.78c3.08-0.64,5.24,1.89,7.48,3.55
		c5.31,4.46,11.69,7.46,16.8,12.2c4.79,4.34,10.74,7.12,15.61,11.38c7.77,6.38,16.41,11.56,24.45,17.58
		c6.11,4.4,11.7,9.75,18.65,12.83c0.45,31.22,0.06,62.46,0.19,93.68c-0.18,11.42,0.38,22.86-0.34,34.27
		c-4.98,0.1-10-0.27-14.95,0.33c-1.08,5.14-0.61,10.6-0.43,15.84c3.45,0.67,7,0.4,10.51,0.43c0.94,4.65,0.66,9.41,0.62,14.13
		c0.01,43.01,0,86.02,0,129.03c0.04,1.57,0.26,3.94,2.37,4.01c4.21,1.1,9.42-1.41,12.95,1.64c-26.69,0.46-53.4,0.14-80.1,0.26
		c-3.21-0.03-6.44,0.1-9.63-0.31c-0.67-8.44,0.17-16.94-0.37-25.38l-0.87-0.1c-15.96-0.33-31.96,0.43-47.91-0.26
		c-0.52-25.29-0.08-50.6-0.22-75.89c0-60.34,0-120.67,0-181c-0.19-11.66,0.4-23.34-0.3-34.98l-0.1-0.7
		c-9.45-0.01-18.91,0.19-28.35-0.05c-1.45-1.67-2.65-4.29-5.27-4.01c-46.3-0.14-92.62,0.15-138.94-0.16
		c-4.08,0.13-8.17,0.24-12.22-0.3c5.61-0.79,11.28-0.28,16.92-0.6c61.28,0.43,122.57-0.06,183.85,0.21
		c0.13,39.87,0.02,79.76,0.04,119.63c0.03,1.21,0.17,2.42,0.43,3.64c3.51,0.31,7.07,0.31,10.58-0.06
		c0.17-38.86-0.01-77.75,0.07-116.63c0.06-2.01,0.27-4.01,0.48-5.99c6.13,0.25,12.35,0.79,18.45-0.15
		C810.52,1156.5,811.18,1147.09,810.19,1137.78z"/>
	<path fill="#57706A" stroke="#57706A" stroke-width="0.5" d="M1097,1143.32c4.77-0.12,9.76,0.74,14.32-1.15
		c-0.03,32.61,0,65.22-0.01,97.83c-0.17,21.61,0.35,43.24-0.25,64.83c-39.95,0.24-79.91-0.03-119.86,0.13l-0.16-0.7
		c1.23-3.99,0.71-8.17,0.75-12.26c0.01-45,0-90,0-135c0.04-4.54-0.45-9.13,0.42-13.61C1027.13,1143.23,1062.07,1143.38,1097,1143.32
		z"/>
	<path fill="#57706A" stroke="#57706A" stroke-width="0.5" d="M934.21,1144.21c4.4-1.53,9.2-0.47,13.76-0.87
		c8.74,0.29,17.54-0.56,26.24,0.56c0.08,29.37,0.01,58.73,0.03,88.1c-0.15,24.28,0.3,48.58-0.22,72.85
		c-13.6,0.24-27.22-0.08-40.83,0.13c0.38-1.96,0.65-3.95,0.71-5.92c-0.06-42.02-0.01-84.04-0.02-126.06
		C934.13,1163.4,933.37,1153.77,934.21,1144.21z"/>
	<path fill="#57706A" stroke="#57706A" stroke-width="0.5" d="M1127.6,1144.19c8.41-1.21,16.93-0.24,25.4-0.53
		c10.63,0.24,21.31-0.47,31.92,0.33c0.54,4.31,0.21,8.67,0.26,13.01c0.01,43.33-0.01,86.67,0.01,130
		c0.08,5.95-0.47,11.95,0.46,17.88c-19.27,0.08-38.54,0.08-57.8-0.01c-0.19-1.3-0.29-2.59-0.3-3.87
		C1127.61,1248.73,1127.53,1196.46,1127.6,1144.19z"/>
	<path fill="#D9D3D0" stroke="#D9D3D0" stroke-width="0.5" d="M580.03,1156.83c3.82-2.9,7.55-5.92,11.46-8.69
		c4.36,1.5,8.99,0.82,13.5,0.86c5.24-0.02,10.49,0.11,15.74-0.12c24.76,0.11,49.51,0.03,74.27,0.06
		c25.12-0.16,50.25,0.31,75.36-0.27c3.61,2.63,7.12,5.38,10.6,8.19c-58.23,0.62-116.48-0.07-174.72,0.37
		C597.5,1157.29,588.76,1156.57,580.03,1156.83z"/>
	<path fill="#EBE4E0" stroke="#EBE4E0" stroke-width="0.5" d="M580.03,1156.83c8.73-0.26,17.47,0.46,26.21,0.4
		c-3.22,2.59-6.46,5.16-9.5,7.97c-5.64,0.32-11.31-0.19-16.92,0.6c-3.32-0.52-6.65-0.95-10-1.05
		C573.19,1162.07,576.5,1159.3,580.03,1156.83z"/>
	<path fill="#FEFEFB" stroke="#FEFEFB" stroke-width="0.5" d="M606.24,1157.23c58.24-0.44,116.49,0.25,174.72-0.37
		c3.8,2.97,7.71,5.82,11.23,9.14c-0.21,1.98-0.42,3.98-0.48,5.99c-0.08,38.88,0.1,77.77-0.07,116.63
		c-3.51,0.37-7.07,0.37-10.58,0.06c-0.26-1.22-0.4-2.43-0.43-3.64c-0.02-39.87,0.09-79.76-0.04-119.63
		c-61.28-0.27-122.57,0.22-183.85-0.21C599.78,1162.39,603.02,1159.82,606.24,1157.23z"/>
	<path fill="#FEFFFD" stroke="#FEFFFD" stroke-width="0.5" d="M565.62,1165.8c1.38-0.43,2.77-0.79,4.2-1.05
		c3.35,0.1,6.68,0.53,10,1.05c-0.42,40.92,0.02,81.87-0.22,122.8c-4.46,0.25-8.94,0.28-13.4,0.06c-1.06-11.51-0.15-23.12-0.45-34.66
		C565.66,1224.6,565.93,1195.19,565.62,1165.8z"/>
	<path fill="#F8C476" stroke="#F8C476" stroke-width="0.5" d="M592.04,1166.1c46.32,0.31,92.64,0.02,138.94,0.16
		c2.62-0.28,3.82,2.34,5.27,4.01c-41.08,0.21-82.17,0.03-123.25,0.09c-6.3-0.2-12.67,0.54-18.91-0.56
		C593.65,1168.43,592.96,1167.18,592.04,1166.1z"/>
	<path fill="#25120A" stroke="#25120A" stroke-width="0.5" d="M592.67,1174.96c-0.15-1.88,0.25-3.69,1.42-5.16
		c6.24,1.1,12.61,0.36,18.91,0.56c41.08-0.06,82.17,0.12,123.25-0.09c9.44,0.24,18.9,0.04,28.35,0.05l0.1,0.7
		c-0.66,24.31-0.1,48.66-0.29,72.98c0,58.33,0,116.67,0,175c-0.21,14.43,0.4,28.9-0.29,43.32c-2.36-0.19-1.92-2.61-2.02-4.29
		c0.02-86.34-0.02-172.69,0.02-259.03c-0.1-4.16,0.48-8.42-0.62-12.47c-9.46-0.85-19-0.08-28.5-0.35
		c-40.26,0.1-80.54-0.18-120.8,0.15c-0.73,8.86-0.08,17.78-0.31,26.67c0,81.35,0.01,162.7,0.03,244.05
		c-0.05,2.01-0.39,4.03-0.76,6.03c-6.11,0.09-12.22,0.01-18.33-0.02C592.52,1367.03,592.85,1270.99,592.67,1174.96z"/>
	<path fill="#944429" stroke="#944429" stroke-width="0.5" d="M764.41,1244c0.19-24.32-0.37-48.67,0.29-72.98
		c0.7,11.64,0.11,23.32,0.3,34.98c0,60.33,0,120.66,0,181c0.14,25.29-0.3,50.6,0.22,75.89c15.95,0.69,31.95-0.07,47.91,0.26
		c0.36,8.89,0.31,17.8,0.03,26.7c-88.73,0.28-177.47,0.04-266.2,0.12l-0.22-0.78c0.56-8.45,0.42-16.93,0.07-25.38
		c1.02-1.16,2.8-0.54,4.16-0.75c13.95,0.09,27.91,0.11,41.86,0c6.11,0.03,12.22,0.11,18.33,0.02c50.94-0.03,101.89-0.14,152.84,0.07
		l0.12-0.83c0.69-14.42,0.08-28.89,0.29-43.32C764.41,1360.67,764.41,1302.33,764.41,1244z"/>
	<path fill="#AB9D09" stroke="#AB9D09" stroke-width="0.5" d="M1708.21,1173.62c0.69-1.05,2.25-0.25,3.33-0.34
		c-0.58,23.03,5.83,45.44,13.25,67.01c7.22,19.17,14.64,38.26,22.52,57.17c3.1,8.75,6.29,17.49,8.67,26.47
		c1.65,7.19,0.69,14.59,0.15,21.86c-3.61,3.22-7.07,6.97-11.82,8.47c-8.48,2.88-17.58,1.62-26.35,1.75
		c-5.47,0.18-9.84-3.49-14.9-4.8c-1.03,11.86-0.01,23.83-0.44,35.72c-0.19,0.98-0.39,1.98-0.62,2.98l-0.03-1
		c0.07-28.97,0-57.94,0.04-86.91c-0.02-3.56,0.2-7.13-0.24-10.65c-2.54-0.25-5.09-0.23-7.6,0.04c-1.06,3.77-0.4,7.74-0.51,11.61
		c-0.08,27.36,0.16,54.73-0.08,82.1c-0.48-0.95-0.91-1.89-1.26-2.84c0.82-15.05,0.12-30.13,0.44-45.18
		c-0.23,0.32-0.67,0.95-0.89,1.27c-4.82-7.68-6.26-16.93-7.49-25.75c-2.81-34.34,4.67-68.45,13.81-101.34
		c3.3-8.8,4.61-18.19,8.23-26.88C1707.57,1180.92,1709.8,1177.31,1708.21,1173.62z"/>
	<path fill="#BFA80A" stroke="#BFA80A" stroke-width="0.5" d="M1697.27,1180.29c3.54-2.36,6.79-5.4,10.94-6.67
		c1.59,3.69-0.64,7.3-1.79,10.76c-3.62,8.69-4.93,18.08-8.23,26.88c-9.14,32.89-16.62,67-13.81,101.34
		c1.23,8.82,2.67,18.07,7.49,25.75c0.89,6.17,0.34,12.43,0.46,18.64c-0.11,6.36,0.32,12.74-0.23,19.1
		c-1.53-0.19-1.93-2.13-3.45-2.36c-4.97-10.11-8.72-20.8-13.9-30.8c-1.99,0.29-3.89,1.08-5.48,2.29
		c5.71,15.05,12.99,29.52,19.04,44.46c-1.55,1.3-3.57,0.3-5.3,0.15c-5.42-1.14-11.12-1.92-15.83-5.03
		c-3.55-2.15-7.92-3.02-10.73-6.26c-4.35-4.66-9.42-8.83-12.44-14.56c-3-5.67-6-11.53-6.87-17.96c-0.91-7.67-2.71-15.26-2.37-23.03
		c0.32-19.48,4.9-38.58,10.23-57.22c3.67-9.19,6.55-18.74,11.27-27.47c2.44-4.93,5.15-9.73,7.32-14.8
		c5.7-9.1,11.16-18.45,18.31-26.53C1686.87,1191.27,1691,1184.72,1697.27,1180.29z"/>
	<path fill="#B0820A" stroke="#B0820A" stroke-width="0.5" d="M1497.98,1185.87c6.69-0.25,13.36-1.89,20.06-0.79
		c16.82,1.17,33.23,8.77,44.66,21.22c5.29,5.73,9.33,12.87,10.39,20.68c1.13,5.74-0.53,11.7-3.44,16.66
		c-1.52,2.59-4.37,4.18-5.55,6.97c9.89-0.1,20.33,1.03,28.88,6.45c9.2,5.66,15.35,15.32,18.34,25.54
		c5.23,19.68,1.34,41.19-9.22,58.46c-4.6,8.38-11.66,15.03-19.21,20.74c-2.81,2.05-6.2,3.09-9.03,5.08
		c-10.68,14.07-25.28,26.3-42.93,30.06c-13.88,2.83-28.78,0.18-40.93-7.07c0.22-7.86-0.56-15.79,0.34-23.59
		c10.41-14.44,21.81-28.22,32.42-42.54c1.9-2.85,4.87-5.17,5.94-8.46c-1.09-1.4-2.47-2.98-4.37-2.97
		c-11.09,13.37-21.03,27.71-32.14,41.08c-2.09-5.23-1.2-10.92-1.33-16.39c-0.07-10.6,0.24-21.21-0.09-31.79l-0.84-0.35
		c-2.71-0.35-5.44-0.14-8.13-0.03c1.49-0.86,3.26-0.95,4.92-1.38c0.72-9.78,0.01-19.64,0.25-29.45c0.02-23.67,0-47.33,0.01-71
		c0.13-4.99,0.16-10.03-1.07-14.9C1489.64,1186.25,1493.94,1186.43,1497.98,1185.87z"/>
	<path fill="#4A2314" stroke="#4A2314" stroke-width="0.5" d="M612.2,1186.33c40.26-0.33,80.54-0.05,120.8-0.15
		c9.5,0.27,19.04-0.5,28.5,0.35c1.1,4.05,0.52,8.31,0.62,12.47c-0.04,86.34,0,172.69-0.02,259.03c0.1,1.68-0.34,4.1,2.02,4.29
		l-0.12,0.83c-50.95-0.21-101.9-0.1-152.84-0.07c0.37-2,0.71-4.02,0.76-6.03c-0.02-81.35-0.03-162.7-0.03-244.05
		C612.12,1204.11,611.47,1195.19,612.2,1186.33 M622.3,1200.11c-0.02,23.2-0.03,46.4,0.01,69.6c42.17,0.18,84.37,0.02,126.54,0.08
		l0.04-0.84l0.85-0.23c0.48-12.23,0.07-24.48,0.2-36.72c-0.2-10.56,0.34-21.15-0.18-31.68l-0.77-0.46
		c-33.33-0.24-66.66-0.04-99.99-0.11C640.11,1199.99,631.16,1199.3,622.3,1200.11 M620.16,1289.15
		c-1.12,10.54-0.12,21.24-0.44,31.85c-0.02,43.35,0.04,86.69-0.04,130.04c-0.31,2.06,0.93,4.39,3.32,4
		c40.3,0.01,80.62-0.02,120.91,0.04c1.99-0.17,2.3-2.46,2.26-4.02c-0.13-44.68-0.03-89.37-0.06-134.06
		c-0.22-9.28,0.41-18.61-0.3-27.86c-3.91-0.67-7.88-0.29-11.81-0.33c-32.34,0-64.67,0-97,0
		C631.39,1289.1,625.69,1288.2,620.16,1289.15z"/>
	<path fill="#BF8F09" stroke="#BF8F09" stroke-width="0.5" d="M1477.13,1191.1c2.76-1.4,5.58-3,8.78-3c1.23,4.87,1.2,9.91,1.07,14.9
		c-0.01,23.67,0.01,47.33-0.01,71c-0.24,9.81,0.47,19.67-0.25,29.45c-1.66,0.43-3.43,0.52-4.92,1.38
		c-0.4,10.34,0.08,20.7-0.15,31.05c-17.41-9.55-34.29-20.13-51.51-30.02c-0.53-0.21-1.58-0.64-2.11-0.86
		c-1.57,1.07-2.51,2.83-2.82,4.69c18.19,11.29,36.95,21.71,55.27,32.78c0.27,0.23,0.79,0.69,1.05,0.92
		c0.36,13.55,0.06,27.15,0.12,40.73c-2.35-0.8-3.88-2.83-5.82-4.2c-1.39-0.99-2.82,0.36-4.04,0.89c-4.6,2.45-9.29,4.82-14.18,6.61
		c-4.21,0.85-8.17,2.46-12.23,3.76c-8.07,1.24-16.26,1.41-24.35,0.37c-14.41-2.8-27.47-11.84-35.07-24.41
		c-2.41-5.22-5.64-10.29-6.07-16.16c-0.3-4.02-1.73-7.98-1.11-12.02c0.91-5.43,1.23-11.16,4.2-15.97
		c2.36-5.17,6.74-8.85,10.44-12.99c-7.85-6.25-16.75-12.94-19.24-23.21c-3.97-14.52,0.96-29.76,8.27-42.36
		c5.87-9.48,12.94-18.29,21.51-25.45c7.14-4.92,13.71-10.91,21.91-14.07c9.3-3.95,20.31-5.93,29.81-1.55
		c1.94,0.89,3.27,3.58,5.65,3.19C1464.54,1199.72,1470.48,1194.49,1477.13,1191.1z"/>
	<path fill="#AEAEAE" stroke="#AEAEAE" stroke-width="0.5" d="M622.3,1200.11c8.86-0.81,17.81-0.12,26.7-0.36
		c33.33,0.07,66.66-0.13,99.99,0.11c-0.23,23.02-0.05,46.05-0.1,69.09l-0.04,0.84c-42.17-0.06-84.37,0.1-126.54-0.08
		C622.27,1246.51,622.28,1223.31,622.3,1200.11 M631.4,1204.4l-0.51,0.7c-0.62,6.27-0.09,12.6-0.26,18.9
		c0.16,12.63-0.32,25.29,0.23,37.91c3.64,0.17,7.29,0.16,10.94,0.05c33.02-0.02,66.05,0.25,99.06-0.14
		c0.21-16.53-0.01-33.07,0.11-49.6c0.05-2.37,0-4.73-0.23-7.06l-0.8-0.03l-0.4-0.71C703.5,1204.33,667.44,1204.37,631.4,1204.4z"/>
	<path fill="#2B0F05" stroke="#2B0F05" stroke-width="0.5" d="M748.99,1199.86l0.77,0.46c0.52,10.53-0.02,21.12,0.18,31.68
		c-0.13,12.24,0.28,24.49-0.2,36.72l-0.85,0.23C748.94,1245.91,748.76,1222.88,748.99,1199.86z"/>
	<path fill="#EBE3E1" stroke="#EBE3E1" stroke-width="0.5" d="M631.4,1204.4c36.04-0.03,72.1-0.07,108.14,0.02l0.4,0.71
		c-36.35,0.05-72.7,0.12-109.05-0.03L631.4,1204.4z"/>
	<path fill="#40534F" stroke="#40534F" stroke-width="0.5" d="M630.89,1205.1c36.35,0.15,72.7,0.08,109.05,0.03l0.8,0.03
		c0.23,2.33,0.28,4.69,0.23,7.06c-5.19,1.58-10.65,0.73-15.97,0.89c-27.9,0.13-55.82-0.22-83.7,0.17
		c-0.45,9.55-0.03,19.14-0.16,28.72c0.22,6.64-0.64,13.37,0.66,19.96c-3.65,0.11-7.3,0.12-10.94-0.05
		c-0.55-12.62-0.07-25.28-0.23-37.91C630.8,1217.7,630.27,1211.37,630.89,1205.1z"/>
	<path fill="#57706A" stroke="#57706A" stroke-width="0.5" d="M725,1213.11c5.32-0.16,10.78,0.69,15.97-0.89
		c-0.12,16.53,0.1,33.07-0.11,49.6c-33.01,0.39-66.04,0.12-99.06,0.14c-1.3-6.59-0.44-13.32-0.66-19.96
		c0.13-9.58-0.29-19.17,0.16-28.72C669.18,1212.89,697.1,1213.24,725,1213.11z"/>
	<path fill="#28130B" stroke="#28130B" stroke-width="0.5" d="M620.16,1289.15c5.53-0.95,11.23-0.05,16.84-0.34
		c32.33,0,64.66,0,97,0c3.93,0.04,7.9-0.34,11.81,0.33c0.71,9.25,0.08,18.58,0.3,27.86c0.03,44.69-0.07,89.38,0.06,134.06
		c0.04,1.56-0.27,3.85-2.26,4.02c-40.29-0.06-80.61-0.03-120.91-0.04c-2.39,0.39-3.63-1.94-3.32-4
		c0.08-43.35,0.02-86.69,0.04-130.04C620.04,1310.39,619.04,1299.69,620.16,1289.15 M622.73,1296.96
		c0.02,43.01,0.01,86.03,0.02,129.04c0.24,8.59-0.5,17.25,0.34,25.81c8.61,0.68,17.27,0.15,25.91,0.34c20.33,0,40.66,0,60.99,0
		c9.97-0.22,19.97,0.46,29.91-0.36c1.01-5.87,0.18-11.88,0.42-17.79c0.01-45.68-0.01-91.36,0.01-137.03
		c0.15-2.22-0.39-5.46-3.32-5.13c-37.01-0.1-74.03-0.06-111.04-0.02C623.01,1291.41,622.65,1294.81,622.73,1296.96z"/>
	<path fill="#41200B" stroke="#41200B" stroke-width="0.5" d="M1694.17,1291.39c2.51-0.27,5.06-0.29,7.6-0.04
		c0.44,3.52,0.22,7.09,0.24,10.65c-0.04,28.97,0.03,57.94-0.04,86.91c-1.27,4.93-0.81,10.05-0.86,15.09c-0.04,25,0.01,50-0.02,75
		c-0.13,4.1-0.18,8.26,0.78,12.3c0.04,1.24,0.07,2.5,0.07,3.78c-2.65,0.43-5.36,0.43-7.97-0.02c-0.23-1.68-0.31-3.34-0.37-4.99
		c0.07-28.03-0.03-56.06,0.05-84.09c0.66-6.01-3.4-10.94-5.34-16.3c-6.05-14.94-13.33-29.41-19.04-44.46c1.59-1.21,3.49-2,5.48-2.29
		c5.18,10,8.93,20.69,13.9,30.8c1.26,2.81,2.51,5.65,3.67,8.53c0.35,0.95,0.78,1.89,1.26,2.84c0.24-27.37,0-54.74,0.08-82.1
		C1693.77,1299.13,1693.11,1295.16,1694.17,1291.39z"/>
	<path fill="#4A2314" stroke="#4A2314" stroke-width="0.5" d="M622.73,1296.96c-0.08-2.15,0.28-5.55,3.24-5.14
		c37.01-0.04,74.03-0.08,111.04,0.02c2.93-0.33,3.47,2.91,3.32,5.13c-0.02,45.67,0,91.35-0.01,137.03
		c-0.24,5.91,0.59,11.92-0.42,17.79c-9.94,0.82-19.94,0.14-29.91,0.36c-20.33,0-40.66,0-60.99,0c-8.64-0.19-17.3,0.34-25.91-0.34
		c-0.84-8.56-0.1-17.22-0.34-25.81C622.74,1382.99,622.75,1339.97,622.73,1296.96z"/>
	<path fill="#41210A" stroke="#41210A" stroke-width="0.5" d="M244,1304.99c2.59-0.18,5.22-0.46,7.8,0.04
		c0.73,10.26-0.3,20.57,0.5,30.83c17.25-9.81,34.28-20.05,51.43-30.05c2.64-1.97,4.52,1.64,4.92,3.85
		c-13.11,8.36-26.87,15.67-40.08,23.89c-5.36,3.35-11.4,5.7-16.27,9.77c-0.22,1.18-0.33,2.38-0.33,3.62
		c0.15,12.95-0.06,25.91,0.09,38.86c-0.39,24.73-0.07,49.47-0.17,74.2c0.12,10.04-0.32,20.1,0.36,30.14
		c-0.18,0.59-0.56,1.78-0.75,2.38c-2.3,0.36-4.66,0.38-6.97,0.16c-0.07-0.34-0.21-1.03-0.28-1.38c1.14-5.04,0.55-10.2,0.63-15.3
		c0.07-28.34-0.1-56.69,0.09-85.03c-0.09-1.49-0.46-2.91-0.8-4.32l-0.19-0.8c-0.37-5.95,0.27-11.91-0.17-17.84
		c-0.06-1.8-1.24-3.23-2.23-4.6c-11.76-14.94-23.14-30.16-34.9-45.09c-0.63-0.97-1.44-1.93-1.51-3.1c1.13-1.25,3.1-4.02,4.86-2.22
		c11.49,14.15,22,29.11,33.69,43.09C244.18,1339.06,243.69,1322.01,244,1304.99z"/>
	<path fill="#402109" stroke="#402109" stroke-width="0.5" d="M1425.21,1309.69c0.31-1.86,1.25-3.62,2.82-4.69
		c0.53,0.22,1.58,0.65,2.11,0.86c17.22,9.89,34.1,20.47,51.51,30.02c0.23-10.35-0.25-20.71,0.15-31.05
		c2.69-0.11,5.42-0.32,8.13,0.03c0.23,17.07-0.13,34.15,0.17,51.23c0.69-0.91,1.4-1.79,2.09-2.7
		c11.11-13.37,21.05-27.71,32.14-41.08c1.9-0.01,3.28,1.57,4.37,2.97c-1.07,3.29-4.04,5.61-5.94,8.46
		c-10.61,14.32-22.01,28.1-32.42,42.54c-0.9,7.8-0.12,15.73-0.34,23.59c0.08,33.44-0.17,66.88,0.13,100.31
		c-0.15,0.61-0.43,1.82-0.57,2.42c-2.38,0.3-4.8,0.3-7.14-0.08c-0.21-0.61-0.61-1.82-0.82-2.42c0.17-35.33,0.09-70.66,0.05-105.98
		c-0.06-13.58,0.24-27.18-0.12-40.73c-0.26-0.23-0.78-0.69-1.05-0.92C1462.16,1331.4,1443.4,1320.98,1425.21,1309.69z"/>
	<path fill="#B98F2C" stroke="#B98F2C" stroke-width="0.5" d="M1489.93,1304.86l0.84,0.35c0.33,10.58,0.02,21.19,0.09,31.79
		c0.13,5.47-0.76,11.16,1.33,16.39c-0.69,0.91-1.4,1.79-2.09,2.7C1489.8,1339.01,1490.16,1321.93,1489.93,1304.86z"/>
	<path fill="#DE9C52" stroke="#DE9C52" stroke-width="0.5" d="M878.08,1323.6c4.95-0.6,9.97-0.23,14.95-0.33
		c2.32,0.25,4.67,0.37,7.01,0.09c50.98,0.03,101.97,0.01,152.96,0.02c51.65-0.1,103.3,0.18,154.94-0.14
		c5.29,0.46,10.99-0.98,16.03,0.94c0.43,5.14,0.42,10.35-0.17,15.48c-1.65,0.16-3.31,0.18-4.95,0.24
		c-110.23-0.09-220.46-0.02-330.69-0.03c-3.51-0.03-7.06,0.24-10.51-0.43C877.47,1334.2,877,1328.74,878.08,1323.6z"/>
	<path fill="#F6C46F" stroke="#F6C46F" stroke-width="0.5" d="M1691.87,1338.35c0.22-0.32,0.66-0.95,0.89-1.27
		c-0.32,15.05,0.38,30.13-0.44,45.18c-1.16-2.88-2.41-5.72-3.67-8.53c1.52,0.23,1.92,2.17,3.45,2.36c0.55-6.36,0.12-12.74,0.23-19.1
		C1692.21,1350.78,1692.76,1344.52,1691.87,1338.35z"/>
	<path fill="#F8C67D" stroke="#F8C67D" stroke-width="0.5" d="M888.16,1339.87c110.23,0.01,220.46-0.06,330.69,0.03
		c-1.4,7.62-0.35,15.41-0.67,23.1c0,32.33,0,64.67-0.01,97c-0.26,8.93,0.56,17.93-0.35,26.83c-3.9,0.74-7.88,0.21-11.81,0.42
		c-1.3-0.21-2.21,0.65-3.11,1.42c34.35,0.53,68.74,0.13,103.1,0.26c4.74,0.17,9.59-0.75,14.23,0.63
		c-26.07,0.51-52.16,0.08-78.23,0.23c-142.95,0.07-285.9-0.08-428.84,0.06c0.28-8.9,0.33-17.81-0.03-26.7l0.87,0.1
		c0.54,8.44-0.3,16.94,0.37,25.38c3.19,0.41,6.42,0.28,9.63,0.31c26.7-0.12,53.41,0.2,80.1-0.26c-3.53-3.05-8.74-0.54-12.95-1.64
		c-2.11-0.07-2.33-2.44-2.37-4.01c0-43.01,0.01-86.02,0-129.03C888.82,1349.28,889.1,1344.52,888.16,1339.87z"/>
	<path fill="#BFA80A" stroke="#BFA80A" stroke-width="0.5" d="M1744.31,1354.26c4.75-1.5,8.21-5.25,11.82-8.47
		c0.95,9.33-0.46,19.49-6.27,27.14c-3.22,4.77-8.07,8.22-13.19,10.72c-10.76,5.16-22.8,7.04-34.65,7.12l-0.02-0.86
		c0.23-1,0.43-2,0.62-2.98c0.43-11.89-0.59-23.86,0.44-35.72c5.06,1.31,9.43,4.98,14.9,4.8
		C1726.73,1355.88,1735.83,1357.14,1744.31,1354.26z"/>
	<path fill="#1A0A00" stroke="#1A0A00" stroke-width="0.5" d="M244.17,1386.65c0.34,1.41,0.71,2.83,0.8,4.32
		c-0.19,28.34-0.02,56.69-0.09,85.03c-0.08,5.1,0.51,10.26-0.63,15.3l-0.18-1c-0.28-27.76-0.04-55.54-0.12-83.3
		C244.05,1400.22,243.72,1393.42,244.17,1386.65z"/>
	<path fill="#1D0B00" stroke="#1D0B00" stroke-width="0.5" d="M1701.11,1404c0.05-5.04-0.41-10.16,0.86-15.09l0.03,1l0.02,0.86
		c-0.11,33.16,0.1,66.32-0.11,99.48l-0.04,1.05c-0.96-4.04-0.91-8.2-0.78-12.3C1701.12,1454,1701.07,1429,1701.11,1404z"/>
	<path fill="#FFD393" stroke="#FFD393" stroke-width="0.5" d="M546.07,1477c0.18-4.4-0.59-8.93,0.74-13.19
		c0.35,8.45,0.49,16.93-0.07,25.38C545.35,1485.26,546.19,1481.05,546.07,1477z"/>
	<path fill="#677573" stroke="#677573" stroke-width="0.5" d="M50.88,1490c57.36-0.36,114.75-0.04,172.12-0.16
		c7.02,0.26,14.12-0.61,21.07,0.46l0.18,1c0.07,0.35,0.21,1.04,0.28,1.38c2.31,0.22,4.67,0.2,6.97-0.16
		c0.19-0.6,0.57-1.79,0.75-2.38c8.89-0.69,17.84-0.1,26.75-0.29c71.66-0.04,143.32,0.07,214.98-0.06
		c17.66,0.23,35.32-0.17,52.98,0.18c88.73-0.08,177.47,0.16,266.2-0.12c142.94-0.14,285.89,0.01,428.84-0.06
		c26.07-0.15,52.16,0.28,78.23-0.23l0.73,0.04c23.67,0.55,47.36,0.1,71.04,0.25c28.67,0,57.35-0.01,86.02,0
		c1.19-0.02,2.38,0.07,3.58,0.25c0.21,0.6,0.61,1.81,0.82,2.42c2.34,0.38,4.76,0.38,7.14,0.08c0.14-0.6,0.42-1.81,0.57-2.42
		c9.25-0.85,18.58-0.09,27.87-0.33c53.66-0.01,107.33,0.01,160.99-0.01c4.86,0.05,9.75-0.26,14.61,0.23
		c0.06,1.65,0.14,3.31,0.37,4.99c2.61,0.45,5.32,0.45,7.97,0.02c0-1.28-0.03-2.54-0.07-3.78l0.04-1.05c5.64-0.94,11.4-0.2,17.09-0.4
		c31.67-0.01,63.33,0,95,0c13.67,0.17,27.37-0.34,41.02,0.19c0.54,5.29,0.42,10.68,0.01,15.99c-7.65,0.69-15.36,0.08-23.03,0.28
		c-585.33,0.01-1170.66,0-1756,0.01c-8.37-0.19-16.78,0.35-25.14-0.25C50.42,1500.73,50.38,1495.32,50.88,1490z"/>
</g>
</svg>
